<svg width="66" height="66" viewBox="0 0 66 66" fill="none" xmlns="http://www.w3.org/2000/svg">
<path d="M4.83594 28.3182C4.58216 28.3183 4.33882 28.4192 4.15937 28.5986C3.97993 28.7781 3.87905 29.0214 3.87891 29.2752V33.5135C3.87891 33.7673 3.97974 34.0107 4.15921 34.1902C4.33869 34.3697 4.58212 34.4705 4.83594 34.4705C5.08976 34.4705 5.33318 34.3697 5.51266 34.1902C5.69214 34.0107 5.79297 33.7673 5.79297 33.5135V29.2752C5.79282 29.0214 5.69195 28.7781 5.5125 28.5986C5.33305 28.4192 5.08971 28.3183 4.83594 28.3182Z" fill="#F9D7E0"/>
<path d="M16.8469 31.9609C15.0352 31.9609 13.2642 32.4981 11.7578 33.5046C10.2514 34.5112 9.07736 35.9418 8.38405 37.6156C7.69074 39.2894 7.50933 41.1312 7.86278 42.9081C8.21623 44.685 9.08865 46.3172 10.3697 47.5982C11.6508 48.8793 13.283 49.7517 15.0599 50.1052C16.8368 50.4586 18.6786 50.2772 20.3524 49.5839C22.0262 48.8906 23.4568 47.7165 24.4633 46.2101C25.4699 44.7038 26.0071 42.9327 26.0071 41.121C26.0043 38.6925 25.0384 36.3641 23.3211 34.6469C21.6038 32.9296 19.2755 31.9636 16.8469 31.9609ZM16.8469 48.3671C15.4138 48.3671 14.0128 47.9421 12.8212 47.1459C11.6296 46.3497 10.7008 45.218 10.1524 43.894C9.60397 42.5699 9.46047 41.113 9.74007 39.7074C10.0197 38.3018 10.7098 37.0107 11.7232 35.9973C12.7366 34.9839 14.0277 34.2938 15.4333 34.0142C16.8389 33.7346 18.2958 33.8781 19.6199 34.4265C20.9439 34.975 22.0756 35.9037 22.8718 37.0953C23.668 38.2869 24.093 39.6879 24.093 41.121C24.0909 43.0421 23.3267 44.884 21.9683 46.2424C20.6099 47.6008 18.768 48.365 16.8469 48.3671Z" fill="#F9D7E0"/>
<path d="M61.1641 46.5351H48.3453L48.447 45.5464V45.5338L49.7595 32.7916C49.7593 32.7885 49.7593 32.7854 49.7595 32.7823L50.8281 22.4338C50.8417 22.3006 50.8273 22.1661 50.7857 22.0388C50.744 21.9116 50.6762 21.7945 50.5866 21.6951C50.4969 21.5957 50.3874 21.5162 50.2651 21.4617C50.1428 21.4072 50.0104 21.379 49.8766 21.3789H32.4827C32.0001 20.2541 31.2493 19.2647 30.2959 18.4972C29.3426 17.7296 28.2157 17.2074 27.0139 16.976V12.082C27.0138 11.9561 26.989 11.8315 26.9407 11.7153C26.8924 11.5991 26.8218 11.4935 26.7327 11.4046C26.6436 11.3158 26.5378 11.2453 26.4215 11.1973C26.3052 11.1493 26.1805 11.1247 26.0547 11.125H19.443V7.05784H24.8674C25.1212 7.05784 25.3647 6.95701 25.5441 6.77753C25.7236 6.59806 25.8245 6.35463 25.8245 6.10081C25.8264 4.9631 25.4066 3.86504 24.6461 3.01882C23.8856 2.1726 22.8385 1.63827 21.707 1.51909L13.1342 0.603077C13.0007 0.588808 12.8657 0.602785 12.738 0.644102C12.6102 0.685418 12.4926 0.753149 12.3928 0.842893C12.2929 0.932637 12.2131 1.04239 12.1584 1.16501C12.1037 1.28763 12.0755 1.42038 12.0755 1.55464V6.10081C12.0756 6.35459 12.1765 6.59793 12.3559 6.77738C12.5354 6.95682 12.7787 7.0577 13.0325 7.05784H14.2477V11.125H7.64141C7.38763 11.1251 7.14429 11.226 6.96484 11.4054C6.7854 11.5849 6.68452 11.8282 6.68438 12.082V16.9765C4.97234 17.3108 3.42948 18.2292 2.31934 19.5747C1.20921 20.9203 0.600664 22.6095 0.597656 24.3539V61.164C0.598959 62.2877 1.04591 63.365 1.84046 64.1595C2.63501 64.9541 3.71228 65.401 4.83594 65.4023H28.8602C29.7002 65.4031 30.5214 65.1529 31.2183 64.6837C31.2706 64.8889 31.3897 65.0709 31.5568 65.201C31.724 65.3311 31.9296 65.4019 32.1414 65.4023H64.4453C64.6991 65.4022 64.9424 65.3013 65.1219 65.1218C65.3013 64.9424 65.4022 64.6991 65.4023 64.4453V50.7734C65.401 49.6497 64.9541 48.5725 64.1595 47.7779C63.365 46.9834 62.2877 46.5364 61.1641 46.5351ZM63.4883 50.7734V50.9101H44.0742V50.7734C44.0749 50.1572 44.32 49.5664 44.7558 49.1307C45.1915 48.695 45.7822 48.4499 46.3984 48.4492H61.1641C61.7803 48.4499 62.371 48.695 62.8067 49.1307C63.2425 49.5664 63.4876 50.1572 63.4883 50.7734ZM46.3984 46.5351C45.2748 46.5364 44.1975 46.9834 43.403 47.7779C42.6084 48.5725 42.1615 49.6497 42.1602 50.7734V56.3406H33.0049L31.9779 46.3929H46.4356L46.4209 46.5351H46.3984ZM30.6643 33.6507H47.7487L46.633 44.4789H31.7805L31.6131 42.859L30.6643 33.6507ZM47.9455 31.7367H30.4647L29.5935 23.2929H48.8156L47.9455 31.7367ZM13.9895 2.61941L21.5036 3.42222C21.9986 3.47449 22.4694 3.66309 22.8637 3.96703C23.2579 4.27097 23.56 4.67833 23.7365 5.14378H18.4991H18.4859H18.4728H15.2178H15.2047H15.1916H13.9884L13.9895 2.61941ZM16.1617 7.05784H17.5289V11.125H16.1617V7.05784ZM25.0977 13.039V16.8343H8.59844V13.039H25.0977ZM28.8602 63.4882H4.83594C4.21974 63.4875 3.62898 63.2424 3.19327 62.8067C2.75755 62.371 2.51244 61.7802 2.51172 61.164V24.3539C2.51331 22.8677 3.1044 21.4428 4.15528 20.392C5.20617 19.3411 6.63101 18.75 8.11719 18.7484H25.5789C26.5292 18.7467 27.4642 18.9874 28.2955 19.4477C29.1269 19.908 29.8272 20.5726 30.3302 21.3789H28.532C28.398 21.3788 28.2655 21.407 28.1431 21.4614C28.0207 21.5158 27.911 21.5954 27.8213 21.6949C27.7315 21.7944 27.6636 21.9116 27.6221 22.039C27.5805 22.1664 27.5661 22.301 27.5799 22.4343L29.7505 43.4579L29.9643 45.536V45.5414L31.1844 57.3468V61.164C31.1837 61.7802 30.9385 62.371 30.5028 62.8067C30.0671 63.2424 29.4764 63.4875 28.8602 63.4882ZM33.0984 61.164V58.2546H42.1602V63.4882H33.0984V61.164ZM63.4883 63.4882H44.0742V52.8242H63.4883V63.4882Z" fill="#801960"/>
<path d="M53.7812 54.1C51.9218 54.1 50.4086 55.92 50.4086 58.1562C50.4086 60.3924 51.9218 62.2124 53.7812 62.2124C55.6406 62.2124 57.1538 60.3924 57.1538 58.1562C57.1538 55.92 55.6406 54.1 53.7812 54.1ZM53.7812 60.2983C52.991 60.2983 52.3227 59.3172 52.3227 58.1562C52.3227 56.9952 52.991 56.0141 53.7812 56.0141C54.5714 56.0141 55.2397 56.9952 55.2397 58.1562C55.2397 59.3172 54.5714 60.2983 53.7812 60.2983Z" fill="#F9D7E0"/>
</svg>
