<svg width="21" height="21" viewBox="0 0 21 21" fill="none" xmlns="http://www.w3.org/2000/svg">
<g clip-path="url(#clip0)">
<path d="M20.6882 7.59053C20.4109 7.24263 19.9949 7.04305 19.5468 7.04305H15.5025L13.3094 2.02139C13.1734 1.71004 12.8108 1.56775 12.4994 1.7038C12.188 1.83977 12.0458 2.20247 12.1818 2.51386L14.1598 7.04309H6.84022L8.8182 2.51386C8.95416 2.20247 8.812 1.83981 8.50061 1.7038C8.18926 1.56775 7.82656 1.70995 7.69059 2.02139L5.49753 7.04309H1.45323C1.00509 7.04309 0.589069 7.24263 0.311762 7.59057C0.0395416 7.93215 -0.0609056 8.37126 0.0361784 8.79544L2.19594 18.229C2.34675 18.8877 2.92946 19.3478 3.61299 19.3478H17.387C18.0705 19.3478 18.6532 18.8877 18.8041 18.229L20.9638 8.7954C21.0609 8.37122 20.9605 7.93211 20.6882 7.59053ZM17.387 18.1173H3.61299C3.50852 18.1173 3.41701 18.0488 3.3954 17.9544L1.23564 8.52084C1.2187 8.44681 1.24712 8.39111 1.27403 8.35744C1.29897 8.3261 1.35545 8.27356 1.45323 8.27356H4.96018L4.79903 8.64258C4.66307 8.95397 4.80523 9.31663 5.11662 9.45264C5.19676 9.48766 5.28027 9.50424 5.36251 9.50424C5.59966 9.50424 5.82565 9.3663 5.92664 9.13509L6.30287 8.27364H14.6972L15.0734 9.13509C15.1744 9.36634 15.4004 9.50424 15.6376 9.50424C15.7198 9.50424 15.8033 9.48766 15.8835 9.45264C16.1949 9.31667 16.3371 8.95397 16.201 8.64258L16.0399 8.27356H19.5469C19.6446 8.27356 19.7011 8.3261 19.7261 8.35744C19.7529 8.39115 19.7814 8.44685 19.7644 8.5208L17.6047 17.9544C17.583 18.0488 17.4915 18.1173 17.387 18.1173Z" fill="#801960"/>
<path d="M6.80859 10.9395C6.46882 10.9395 6.19336 11.215 6.19336 11.5548V16.0665C6.19336 16.4063 6.46882 16.6817 6.80859 16.6817C7.14837 16.6817 7.42383 16.4063 7.42383 16.0665V11.5548C7.42383 11.215 7.14841 10.9395 6.80859 10.9395Z" fill="#801960"/>
<path d="M10.5 10.9395C10.1602 10.9395 9.88477 11.215 9.88477 11.5548V16.0665C9.88477 16.4063 10.1602 16.6817 10.5 16.6817C10.8398 16.6817 11.1152 16.4063 11.1152 16.0665V11.5548C11.1152 11.215 10.8398 10.9395 10.5 10.9395Z" fill="#801960"/>
<path d="M14.1914 10.9395C13.8516 10.9395 13.5762 11.215 13.5762 11.5548V16.0665C13.5762 16.4063 13.8516 16.6817 14.1914 16.6817C14.5312 16.6817 14.8066 16.4063 14.8066 16.0665V11.5548C14.8066 11.215 14.5312 10.9395 14.1914 10.9395Z" fill="#801960"/>
</g>
<defs>
<clipPath id="clip0">
<rect width="21" height="21" fill="#801960"/>
</clipPath>
</defs>
</svg>
