<svg width="52" height="52" viewBox="0 0 52 52" fill="none" xmlns="http://www.w3.org/2000/svg">
<path d="M48.3438 6.5H3.65625C2.9023 6.50083 2.17946 6.80071 1.64634 7.33384C1.11321 7.86696 0.813333 8.5898 0.8125 9.34375V37.7812C0.813333 38.5352 1.11321 39.258 1.64634 39.7912C2.17946 40.3243 2.9023 40.6242 3.65625 40.625H27.233C28.2797 42.1297 29.6748 43.3589 31.2993 44.2077C32.9238 45.0566 34.7296 45.4999 36.5625 45.4999C38.3954 45.4999 40.2012 45.0566 41.8257 44.2077C43.4502 43.3589 44.8453 42.1297 45.892 40.625H48.3438C49.0977 40.6242 49.8205 40.3243 50.3537 39.7912C50.8868 39.258 51.1867 38.5352 51.1875 37.7812V9.34375C51.1867 8.5898 50.8868 7.86696 50.3537 7.33384C49.8205 6.80071 49.0977 6.50083 48.3438 6.5ZM36.5625 43.875C34.6341 43.875 32.7491 43.3032 31.1457 42.2318C29.5423 41.1605 28.2926 39.6377 27.5547 37.8562C26.8167 36.0746 26.6236 34.1142 26.9998 32.2229C27.376 30.3316 28.3046 28.5943 29.6682 27.2307C31.0318 25.8671 32.7691 24.9386 34.6604 24.5623C36.5517 24.1861 38.5121 24.3792 40.2937 25.1172C42.0752 25.8551 43.598 27.1048 44.6693 28.7082C45.7407 30.3116 46.3125 32.1966 46.3125 34.125C46.3094 36.7099 45.2812 39.1881 43.4534 41.0159C41.6256 42.8437 39.1474 43.8719 36.5625 43.875ZM49.5625 37.7812C49.5622 38.1044 49.4337 38.4142 49.2052 38.6427C48.9767 38.8712 48.6669 38.9997 48.3438 39H46.8386C47.6616 37.2662 48.0325 35.3523 47.9168 33.4366C47.8011 31.5208 47.2026 29.6655 46.1769 28.0433C45.1513 26.4212 43.7319 25.0849 42.0508 24.1589C40.3698 23.2328 38.4817 22.7472 36.5625 22.7472C34.6433 22.7472 32.7552 23.2328 31.0742 24.1589C29.3931 25.0849 27.9737 26.4212 26.9481 28.0433C25.9224 29.6655 25.3239 31.5208 25.2082 33.4366C25.0925 35.3523 25.4634 37.2662 26.2864 39H3.65625C3.3331 38.9997 3.02326 38.8712 2.79476 38.6427C2.56626 38.4142 2.43777 38.1044 2.4375 37.7812V20.3125H49.5625V37.7812ZM49.5625 18.6875H2.4375V13.8125H49.5625V18.6875ZM49.5625 12.1875H2.4375V9.34375C2.43777 9.0206 2.56626 8.71076 2.79476 8.48226C3.02326 8.25376 3.3331 8.12527 3.65625 8.125H48.3438C48.6669 8.12527 48.9767 8.25376 49.2052 8.48226C49.4337 8.71076 49.5622 9.0206 49.5625 9.34375V12.1875Z" fill="#D0D8EB"/>
<path d="M19.5 30.0625H4.875C4.65951 30.0625 4.45285 30.1481 4.30048 30.3005C4.1481 30.4528 4.0625 30.6595 4.0625 30.875V36.5625C4.0625 36.778 4.1481 36.9847 4.30048 37.137C4.45285 37.2894 4.65951 37.375 4.875 37.375H19.5C19.7155 37.375 19.9222 37.2894 20.0745 37.137C20.2269 36.9847 20.3125 36.778 20.3125 36.5625V30.875C20.3125 30.6595 20.2269 30.4528 20.0745 30.3005C19.9222 30.1481 19.7155 30.0625 19.5 30.0625ZM18.6875 35.75H5.6875V31.6875H18.6875V35.75Z" fill="#9C6E8E"/>
<path d="M32.5 32.5C32.7155 32.5 32.9222 32.4144 33.0745 32.262C33.2269 32.1097 33.3125 31.903 33.3125 31.6875C33.3125 31.472 33.2269 31.2653 33.0745 31.113C32.9222 30.9606 32.7155 30.875 32.5 30.875H30.0625C29.847 30.875 29.6403 30.9606 29.488 31.113C29.3356 31.2653 29.25 31.472 29.25 31.6875V37.375C29.25 37.5905 29.3356 37.7972 29.488 37.9495C29.6403 38.1019 29.847 38.1875 30.0625 38.1875H32.5C32.7155 38.1875 32.9222 38.1019 33.0745 37.9495C33.2269 37.7972 33.3125 37.5905 33.3125 37.375C33.3125 37.1595 33.2269 36.9528 33.0745 36.8005C32.9222 36.6481 32.7155 36.5625 32.5 36.5625H30.875V32.5H32.5Z" fill="#9C6E8E"/>
<path d="M38.4105 30.9063C38.2033 30.8471 37.9811 30.8726 37.7927 30.9773C37.6043 31.0819 37.4652 31.2571 37.406 31.4643L36.5621 34.4174L35.7183 31.4641C35.6889 31.3615 35.6397 31.2657 35.5733 31.1821C35.5069 31.0986 35.4248 31.0289 35.3315 30.9771C35.2382 30.9253 35.1356 30.8924 35.0296 30.8803C34.9236 30.8681 34.8162 30.877 34.7136 30.9063C34.611 30.9356 34.5152 30.9849 34.4317 31.0513C34.3481 31.1176 34.2785 31.1998 34.2267 31.2931C34.1749 31.3864 34.1419 31.489 34.1298 31.595C34.1176 31.701 34.1265 31.8084 34.1558 31.911L35.7808 37.5985C35.8294 37.7682 35.9318 37.9175 36.0728 38.0239C36.2138 38.1302 36.3855 38.1877 36.5621 38.1877C36.7386 38.1877 36.9104 38.1302 37.0513 38.0239C37.1923 37.9175 37.2947 37.7682 37.3433 37.5985L38.9683 31.911C38.9976 31.8084 39.0065 31.701 38.9943 31.595C38.9822 31.489 38.9493 31.3864 38.8975 31.2931C38.8457 31.1998 38.776 31.1176 38.6924 31.0513C38.6089 30.9849 38.5131 30.9356 38.4105 30.9063Z" fill="#9C6E8E"/>
<path d="M44.098 30.9063C43.8908 30.8471 43.6686 30.8726 43.4802 30.9773C43.2918 31.0819 43.1527 31.2571 43.0935 31.4643L42.2495 34.4174L41.4058 31.4641C41.3465 31.2569 41.2074 31.0817 41.019 30.9771C40.8306 30.8725 40.6083 30.847 40.4011 30.9063C40.1939 30.9656 40.0188 31.1047 39.9142 31.2931C39.8096 31.4815 39.7841 31.7038 39.8433 31.911L41.4683 37.5985C41.5169 37.7682 41.6193 37.9175 41.7603 38.0239C41.9012 38.1302 42.073 38.1877 42.2495 38.1877C42.4261 38.1877 42.5978 38.1302 42.7388 38.0239C42.8798 37.9175 42.9822 37.7682 43.0308 37.5985L44.6558 31.911C44.6851 31.8084 44.694 31.701 44.6818 31.595C44.6697 31.489 44.6368 31.3864 44.585 31.2931C44.5332 31.1998 44.4635 31.1176 44.3799 31.0513C44.2964 30.9849 44.2006 30.9356 44.098 30.9063Z" fill="#9C6E8E"/>
<path d="M4.875 29.25H12.1875C12.403 29.25 12.6097 29.1644 12.762 29.012C12.9144 28.8597 13 28.653 13 28.4375C13 28.222 12.9144 28.0153 12.762 27.863C12.6097 27.7106 12.403 27.625 12.1875 27.625H4.875C4.65951 27.625 4.45285 27.7106 4.30048 27.863C4.1481 28.0153 4.0625 28.222 4.0625 28.4375C4.0625 28.653 4.1481 28.8597 4.30048 29.012C4.45285 29.1644 4.65951 29.25 4.875 29.25Z" fill="#9C6E8E"/>
<path d="M4.875 26.8125H7.3125C7.52799 26.8125 7.73465 26.7269 7.88702 26.5745C8.0394 26.4222 8.125 26.2155 8.125 26C8.125 25.7845 8.0394 25.5778 7.88702 25.4255C7.73465 25.2731 7.52799 25.1875 7.3125 25.1875H4.875C4.65951 25.1875 4.45285 25.2731 4.30048 25.4255C4.1481 25.5778 4.0625 25.7845 4.0625 26C4.0625 26.2155 4.1481 26.4222 4.30048 26.5745C4.45285 26.7269 4.65951 26.8125 4.875 26.8125Z" fill="#9C6E8E"/>
</svg>
