<svg width="38" height="38" viewBox="0 0 38 38" fill="none" xmlns="http://www.w3.org/2000/svg">
<path d="M37.615 11.3316L24.8494 4.32201C24.627 4.19995 24.3574 4.19995 24.135 4.32201L19.3346 6.95794C19.2261 6.98809 19.125 7.04346 19.0391 7.12L11.3694 11.3316C11.1319 11.4621 10.9844 11.7114 10.9844 11.9822V13.4996H2.42139C2.01144 13.4996 1.6792 13.8322 1.6792 14.2418C1.6792 14.6518 2.01144 14.984 2.42139 14.984H10.9844V17.6559H6.72926C6.31932 17.6559 5.98708 17.9884 5.98708 18.3981C5.98708 18.808 6.31932 19.1402 6.72926 19.1402H10.9844V22.9996H4.75C4.34006 22.9996 4.00781 23.3322 4.00781 23.7418C4.00781 24.1518 4.34006 24.484 4.75 24.484H10.9844V26.0017C10.9844 26.2725 11.1319 26.5218 11.3694 26.6523L24.135 33.6619C24.2463 33.7231 24.3693 33.7535 24.4922 33.7535C24.6151 33.7535 24.738 33.7231 24.8494 33.6619L37.615 26.6523C37.8524 26.5218 38 26.2725 38 26.0017V22.6781C38 22.2685 37.6678 21.9359 37.2578 21.9359C36.8479 21.9359 36.5156 22.2685 36.5156 22.6781V25.5625L25.2344 31.7571V19.431L28.8221 17.461V20.5875C28.8221 20.8502 28.9607 21.0931 29.1865 21.2265C29.3028 21.2952 29.4335 21.3297 29.5643 21.3297C29.6872 21.3297 29.8104 21.2993 29.922 21.2378L32.6577 19.7323C32.8946 19.6018 33.0418 19.3528 33.0418 19.082V15.144L36.5156 13.2367V16.7406C36.5156 17.1505 36.8479 17.4828 37.2578 17.4828C37.6678 17.4828 38 17.1505 38 16.7406V11.9822C38 11.7114 37.8524 11.4621 37.615 11.3316ZM23.75 31.7571L12.4688 25.5625V13.2367L23.75 19.431V31.7571ZM24.4922 18.1453L13.2686 11.9822L16.7961 10.0453L28.0199 16.2083L24.4922 18.1453ZM29.562 15.3615L18.3381 9.19841L19.5549 8.53045L30.7785 14.6935L29.562 15.3615ZM31.5575 18.6433L30.3065 19.3319V16.6461L31.5575 15.959V18.6433ZM32.3205 13.8467L21.097 7.6836L24.4922 5.81943L35.7157 11.9822L32.3205 13.8467Z" fill="#801960"/>
<mask id="mask0" mask-type="alpha" maskUnits="userSpaceOnUse" x="1" y="4" width="37" height="30">
<path d="M37.615 11.3316L24.8494 4.32201C24.627 4.19995 24.3574 4.19995 24.135 4.32201L19.3346 6.95794C19.2261 6.98809 19.125 7.04346 19.0391 7.12L11.3694 11.3316C11.1319 11.4621 10.9844 11.7114 10.9844 11.9822V13.4996H2.42139C2.01144 13.4996 1.6792 13.8322 1.6792 14.2418C1.6792 14.6518 2.01144 14.984 2.42139 14.984H10.9844V17.6559H6.72926C6.31932 17.6559 5.98708 17.9884 5.98708 18.3981C5.98708 18.808 6.31932 19.1402 6.72926 19.1402H10.9844V22.9996H4.75C4.34006 22.9996 4.00781 23.3322 4.00781 23.7418C4.00781 24.1518 4.34006 24.484 4.75 24.484H10.9844V26.0017C10.9844 26.2725 11.1319 26.5218 11.3694 26.6523L24.135 33.6619C24.2463 33.7231 24.3693 33.7535 24.4922 33.7535C24.6151 33.7535 24.738 33.7231 24.8494 33.6619L37.615 26.6523C37.8524 26.5218 38 26.2725 38 26.0017V22.6781C38 22.2685 37.6678 21.9359 37.2578 21.9359C36.8479 21.9359 36.5156 22.2685 36.5156 22.6781V25.5625L25.2344 31.7571V19.431L28.8221 17.461V20.5875C28.8221 20.8502 28.9607 21.0931 29.1865 21.2265C29.3028 21.2952 29.4335 21.3297 29.5643 21.3297C29.6872 21.3297 29.8104 21.2993 29.922 21.2378L32.6577 19.7323C32.8946 19.6018 33.0418 19.3528 33.0418 19.082V15.144L36.5156 13.2367V16.7406C36.5156 17.1505 36.8479 17.4828 37.2578 17.4828C37.6678 17.4828 38 17.1505 38 16.7406V11.9822C38 11.7114 37.8524 11.4621 37.615 11.3316ZM23.75 31.7571L12.4688 25.5625V13.2367L23.75 19.431V31.7571ZM24.4922 18.1453L13.2686 11.9822L16.7961 10.0453L28.0199 16.2083L24.4922 18.1453ZM29.562 15.3615L18.3381 9.19841L19.5549 8.53045L30.7785 14.6935L29.562 15.3615ZM31.5575 18.6433L30.3065 19.3319V16.6461L31.5575 15.959V18.6433ZM32.3205 13.8467L21.097 7.6836L24.4922 5.81943L35.7157 11.9822L32.3205 13.8467Z" fill="#801960"/>
</mask>
<g mask="url(#mask0)">
<path d="M44.2034 21.619C44.2034 28.396 37.652 36.4165 30.875 36.4165C24.098 36.4165 12.5368 15.7293 12.5368 8.95234C11.5249 4.14586 23.1739 16.1204 27.3125 16.0949C40.2907 14.1157 19.7917 7.38656 25.3333 3.42822C32.1103 3.42822 44.2034 14.842 44.2034 21.619Z" fill="#F9D7E0"/>
</g>
<path d="M37.2578 18.9675C37.0627 18.9675 36.8711 19.0461 36.7331 19.185C36.5951 19.323 36.5156 19.5137 36.5156 19.7097C36.5156 19.9048 36.5951 20.0965 36.7331 20.2345C36.8711 20.3725 37.0627 20.4519 37.2578 20.4519C37.4529 20.4519 37.6446 20.3725 37.7826 20.2345C37.9206 20.0965 38 19.9048 38 19.7097C38 19.5137 37.9206 19.323 37.7826 19.185C37.6446 19.0461 37.4529 18.9675 37.2578 18.9675Z" fill="#801960"/>
<path d="M1.80589 22.9998H0.742188C0.332245 22.9998 0 23.3323 0 23.7419C0 24.1519 0.332245 24.4841 0.742188 24.4841H1.80589C2.21584 24.4841 2.54808 24.1519 2.54808 23.7419C2.54808 23.3323 2.21584 22.9998 1.80589 22.9998Z" fill="#801960"/>
<path d="M4.50299 18.3982C4.50299 18.2031 4.42355 18.0117 4.28526 17.8737C4.14726 17.7354 3.95592 17.656 3.7608 17.656C3.5654 17.656 3.37405 17.7354 3.23605 17.8737C3.09718 18.0117 3.01862 18.2031 3.01862 18.3982C3.01862 18.5936 3.09718 18.7849 3.23605 18.9229C3.37405 19.0609 3.5654 19.1404 3.7608 19.1404C3.95592 19.1404 4.14726 19.0612 4.28526 18.9229C4.42355 18.7849 4.50299 18.5936 4.50299 18.3982Z" fill="#801960"/>
</svg>
