<svg width="21" height="21" viewBox="0 0 21 21" fill="none" xmlns="http://www.w3.org/2000/svg">
<g clip-path="url(#clip0)">
<path d="M16.5201 2.14286H13.0916V1.28575C13.0916 0.576776 12.5149 0 11.8059 0H9.23456C8.52558 0 7.94881 0.576776 7.94881 1.28575V2.14286H4.52019C3.81121 2.14286 3.23462 2.71964 3.23462 3.42862V5.57129H4.09173V19.7142C4.09173 20.4232 4.66832 21 5.3773 21H15.663C16.3719 21 16.9487 20.4232 16.9487 19.7142V5.57129H17.8058V3.42862C17.8058 2.71964 17.229 2.14286 16.5201 2.14286ZM8.80591 1.28575C8.80591 1.04937 8.99799 0.857108 9.23456 0.857108H11.8059C12.0425 0.857108 12.2345 1.04937 12.2345 1.28575V2.14286H8.80591V1.28575ZM16.0916 19.7142C16.0916 19.9508 15.8995 20.1429 15.663 20.1429H5.3773C5.14091 20.1429 4.94884 19.9508 4.94884 19.7142V5.57129H16.0916V19.7142ZM16.9487 4.71419H4.09173V3.42862C4.09173 3.19223 4.2838 2.99997 4.52019 2.99997H16.5201C16.7566 2.99997 16.9487 3.19223 16.9487 3.42862V4.71419Z" fill="#9C6E8E"/>
<path d="M13.0917 17.9999C13.3287 17.9999 13.5202 17.8082 13.5202 17.5715V8.14276C13.5202 7.906 13.3287 7.71411 13.0917 7.71411C12.8548 7.71411 12.6631 7.906 12.6631 8.14276V17.5715C12.6631 17.8082 12.8548 17.9999 13.0917 17.9999Z" fill="#9C6E8E"/>
<path d="M10.5201 17.9999C10.7571 17.9999 10.9488 17.8082 10.9488 17.5715V8.14276C10.9488 7.906 10.7571 7.71411 10.5201 7.71411C10.2834 7.71411 10.0917 7.906 10.0917 8.14276V17.5715C10.0917 17.8082 10.2834 17.9999 10.5201 17.9999Z" fill="#9C6E8E"/>
<path d="M7.94891 17.9999C8.18585 17.9999 8.37737 17.8082 8.37737 17.5715V8.14276C8.37737 7.906 8.18585 7.71411 7.94891 7.71411C7.71197 7.71411 7.52026 7.906 7.52026 8.14276V17.5715C7.52026 17.8082 7.71197 17.9999 7.94891 17.9999Z" fill="#9C6E8E"/>
</g>
<defs>
<clipPath id="clip0">
<rect width="21" height="21" fill="white"/>
</clipPath>
</defs>
</svg>
