<svg width="70" height="70" viewBox="0 0 70 70" fill="none" xmlns="http://www.w3.org/2000/svg">
<g clip-path="url(#clip0)">
<path d="M19.1694 46.0894C18.8608 46.3216 18.6647 46.6735 18.6297 47.0581C18.5947 47.4426 18.7239 47.8241 18.9858 48.1082L19.8108 49.0042C21.5645 50.9081 24.0549 52.0002 26.6434 52.0002C29.232 52.0002 31.7223 50.9082 33.476 49.0042L34.3011 48.1083C34.5628 47.8242 34.692 47.4428 34.6571 47.0582C34.6223 46.6736 34.4261 46.3217 34.1175 46.0896L31.9439 44.4545C30.3954 43.2898 28.3879 43.0563 26.6436 43.7902C24.8995 43.0567 22.8918 43.2901 21.3433 44.4545L19.1694 46.0894ZM22.9867 46.6396C23.8523 45.9888 25.0096 45.9303 25.9359 46.4903C26.371 46.7533 26.9156 46.7533 27.3507 46.4903C28.2769 45.9302 29.4347 45.9888 30.2997 46.6394L31.2613 47.3628C30.0386 48.5757 28.3719 49.2659 26.6433 49.2659C24.9147 49.2659 23.2478 48.5756 22.0253 47.3628L22.9867 46.6396Z" fill="#F9D7E0"/>
<path d="M9.45643 26.4053C8.92256 26.9392 8.92256 27.8048 9.45643 28.3388C10.8111 29.6934 12.5905 30.3707 14.3698 30.3707C16.1492 30.3707 17.9285 29.6934 19.2832 28.3388C19.8171 27.805 19.8171 26.9393 19.2832 26.4053C18.7492 25.8714 17.8838 25.8714 17.3497 26.4053C16.5537 27.2012 15.4955 27.6397 14.3697 27.6397C13.2439 27.6397 12.1857 27.2012 11.3897 26.4053C10.8558 25.8714 9.99044 25.8714 9.45643 26.4053Z" fill="#801960"/>
<path d="M43.8301 28.3388C44.364 27.805 44.364 26.9393 43.8301 26.4053C43.2961 25.8714 42.4307 25.8714 41.8966 26.4053C41.1006 27.2012 40.0424 27.6397 38.9166 27.6397C37.7908 27.6397 36.7326 27.2012 35.9366 26.4053C35.4026 25.8714 34.5372 25.8714 34.0031 26.4053C33.4692 26.9392 33.4692 27.8048 34.0031 28.3388C35.3578 29.6934 37.1371 30.3707 38.9165 30.3707C40.6958 30.3707 42.4754 29.6934 43.8301 28.3388Z" fill="#801960"/>
<path d="M25.2298 28.3212C24.4749 28.3212 23.8627 28.9333 23.8627 29.6884V37.0045C23.8627 38.5378 25.1101 39.7852 26.6433 39.7852C27.3983 39.7852 28.0105 39.1731 28.0105 38.418C28.0105 37.663 27.3983 37.0509 26.6433 37.0509C26.6178 37.0509 26.597 37.0301 26.597 37.0045V29.6884C26.597 28.9333 25.9848 28.3212 25.2298 28.3212Z" fill="#F9D7E0"/>
<path d="M53.6995 37.401C53.4392 37.401 53.1806 37.4078 52.9233 37.4199C53.127 36.0041 53.2318 34.5692 53.2318 33.1347V23.4249C53.2318 13.1577 46.383 4.08369 36.5767 1.35842C32.1292 0.12224 27.5391 -0.273003 22.9354 0.184035C22.184 0.258545 21.6353 0.928039 21.7099 1.67942C21.7844 2.43081 22.454 2.98013 23.2052 2.90494C27.4714 2.48167 31.7242 2.84779 35.8444 3.99292C44.4718 6.39062 50.4975 14.3813 50.4975 23.4249V33.1347C50.4975 34.7012 50.3614 36.2676 50.0949 37.8034C42.836 39.4484 37.4 45.9512 37.4 53.7004C37.4 54.5682 37.4689 55.4199 37.6001 56.2514C34.2503 58.324 30.5604 59.616 26.6163 60.0943C12.991 58.439 2.73532 46.8769 2.73532 33.1347V23.4249C2.73532 19.9895 3.61331 16.5885 5.27412 13.5891C6.91292 10.6299 9.27809 8.11925 12.114 6.32869C12.7524 5.92552 12.9431 5.08117 12.5401 4.44285C12.1371 3.80452 11.2929 3.61353 10.6541 4.0167C7.43066 6.05212 4.74298 8.90413 2.88215 12.2644C0.997264 15.6681 0.00102234 19.5273 0.00102234 23.4249V33.1347C0.00102234 48.3189 11.3756 61.0847 26.4593 62.8292C26.5114 62.8352 26.5639 62.8382 26.6163 62.8382C26.6686 62.8382 26.7211 62.8352 26.7732 62.8292C30.8253 62.3607 34.7724 61.0517 38.2924 59.0211C40.503 65.4039 46.5742 70 53.6994 70C62.6869 70 69.999 62.6881 69.999 53.7004C69.9991 44.7129 62.687 37.401 53.6995 37.401ZM53.6995 67.2657C46.2196 67.2657 40.1343 61.1804 40.1343 53.7004C40.1343 46.2205 46.2196 40.1353 53.6995 40.1353C61.1795 40.1353 67.2648 46.2206 67.2648 53.7004C67.2648 61.1803 61.1795 67.2657 53.6995 67.2657Z" fill="#801960"/>
<path d="M57.3068 45.5141C54.4264 45.6803 51.7156 46.8964 49.6735 48.9384C46.987 51.625 45.7821 55.3727 46.3733 59.0927L45.9067 59.5593C45.3728 60.0932 45.3728 60.9589 45.9067 61.4929C46.1737 61.7598 46.5235 61.8933 46.8734 61.8933C47.2233 61.8933 47.5731 61.7598 47.8401 61.4929L48.3074 61.0256C48.9285 61.1243 49.5501 61.1738 50.1678 61.1738C53.2487 61.1738 56.2232 59.9637 58.4609 57.7261C60.5028 55.6843 61.7189 52.9734 61.8852 50.0928C61.9565 48.8577 61.4966 47.6487 60.6235 46.7757C59.7507 45.9026 58.5419 45.443 57.3068 45.5141ZM59.1556 49.935C59.0279 52.1453 58.0945 54.2254 56.5275 55.7924C54.9969 57.3231 53.0172 58.2242 50.9303 58.4026L52.3609 56.972C52.8947 56.4381 52.8947 55.5725 52.3609 55.0385C51.8269 54.5047 50.9614 54.5047 50.4273 55.0385L48.9969 56.4689C49.1755 54.3821 50.0765 52.402 51.6069 50.8715C53.174 49.3045 55.2542 48.3711 57.4643 48.2436C57.9275 48.2175 58.3635 48.3819 58.6903 48.7088C59.0172 49.0357 59.1824 49.4713 59.1556 49.935Z" fill="#F9D7E0"/>
<path d="M7.50852 61.1252H6.11854V59.7353C6.11854 58.9802 5.50633 58.3681 4.75139 58.3681C3.99645 58.3681 3.38424 58.9802 3.38424 59.7353V61.1252H1.99426C1.23932 61.1252 0.627106 61.7373 0.627106 62.4924C0.627106 63.2475 1.23932 63.8595 1.99426 63.8595H3.38424V65.2495C3.38424 66.0046 3.99645 66.6167 4.75139 66.6167C5.50633 66.6167 6.11854 66.0046 6.11854 65.2495V63.8595H7.50852C8.26346 63.8595 8.87567 63.2475 8.87567 62.4924C8.87567 61.7373 8.26346 61.1252 7.50852 61.1252Z" fill="#F9D7E0"/>
<path d="M57.3789 22.5658H58.7689V23.9558C58.7689 24.7108 59.3811 25.3229 60.136 25.3229C60.891 25.3229 61.5032 24.7108 61.5032 23.9558V22.5658H62.8932C63.6481 22.5658 64.2603 21.9537 64.2603 21.1986C64.2603 20.4435 63.6481 19.8315 62.8932 19.8315H61.5032V18.4415C61.5032 17.6864 60.891 17.0743 60.136 17.0743C59.3811 17.0743 58.7689 17.6864 58.7689 18.4415V19.8315H57.3789C56.624 19.8315 56.0117 20.4435 56.0117 21.1986C56.0117 21.9537 56.624 22.5658 57.3789 22.5658Z" fill="#F9D7E0"/>
<path d="M17.022 4.04291C17.7771 4.04291 18.3892 3.4308 18.3892 2.67572C18.3892 1.92064 17.7771 1.30853 17.022 1.30853C16.2669 1.30853 15.6548 1.92064 15.6548 2.67572C15.6548 3.4308 16.2669 4.04291 17.022 4.04291Z" fill="#801960"/>
</g>
<defs>
<clipPath id="clip0">
<rect width="70" height="70" fill="white"/>
</clipPath>
</defs>
</svg>
