<svg width="37" height="53" viewBox="0 0 37 53" fill="none" xmlns="http://www.w3.org/2000/svg">
<circle cx="18.5" cy="26.5" r="18.5" fill="#801960"/>
<path d="M25.0313 15.1789C25.1025 15.5325 25.3766 16.1951 25.9618 17.5335C27.0505 20.0191 28.8245 21.3391 28.9879 22.2768C29.0063 22.3789 29.0037 22.4784 28.98 22.5727C28.7375 23.5339 26.9266 23.6544 26.4415 23.7723C26.2491 23.8194 26.17 23.8875 26.1938 24.0787C26.1964 24.0997 26.199 24.1206 26.2043 24.1442C26.2122 24.1861 26.2228 24.2306 26.2386 24.283C26.2517 24.3249 26.2649 24.3694 26.2807 24.4192C26.2913 24.4533 26.3045 24.4873 26.3176 24.524C26.3282 24.558 26.3414 24.5921 26.3546 24.6287C26.3704 24.6733 26.3862 24.7152 26.4046 24.7623C26.4125 24.7859 26.4231 24.8095 26.431 24.8357C26.4468 24.8828 26.4679 24.9299 26.4864 24.9823C26.5206 25.0714 26.5575 25.1709 26.5971 25.2757C26.6023 25.2888 26.6076 25.3045 26.6129 25.3176C26.6471 25.4092 26.684 25.5062 26.721 25.6083C26.7842 25.7812 26.8528 25.9697 26.9266 26.174C26.9608 26.2709 26.9898 26.3626 27.0135 26.449C27.0267 26.4988 27.0399 26.5512 27.0505 26.5983C27.0584 26.6324 27.0663 26.6638 27.0715 26.6952C27.3694 28.2274 26.0804 28.2851 26.0804 28.2851C26.0804 28.2851 26.0804 28.2851 26.0804 28.2877C26.0804 28.2877 26.2438 28.5915 26.315 28.9529C26.3651 29.2096 26.3704 29.4925 26.2359 29.7151C26.1964 29.7806 26.1463 29.8408 26.0778 29.8932C25.4741 30.3725 25.2316 31.2133 25.2316 31.2133C25.2316 31.2133 25.2316 31.2133 25.2316 31.2159C25.3529 31.6061 25.4451 31.9676 25.511 32.3028C26.2412 35.9696 23.766 36.3258 19.6697 35.7758C15.1991 35.176 14.9566 36.8575 14.9566 36.8575C13.3697 40.8386 13.2458 44.0418 13.7282 46.5012C14.3503 49.6782 15.982 51.619 16.7886 52.4152C17.0601 52.6824 17.2393 52.8212 17.2499 52.8291C17.2472 52.8291 17.2446 52.8264 17.242 52.8238C15.526 51.9333 14.092 50.8018 12.9295 49.6494C10.1696 46.915 8.91492 44.068 8.91492 44.068C7.95279 42.1089 7.31225 40.2179 6.93267 38.3976C4.50229 26.7162 12.9585 17.9525 17.9774 12.9657C23.6079 7.37121 22.5218 0.647866 22.4533 0.254996C22.4533 0.252377 22.4533 0.249758 22.4533 0.247139C22.4533 0.239281 22.4507 0.236664 22.4507 0.236664C22.4507 0.236664 22.4507 0.236663 22.4507 0.239282C23.8741 1.88149 24.6491 3.8668 25.0418 5.80758C25.8853 9.96416 24.9865 13.9269 24.9865 13.9269C25.0102 14.1679 25.0102 14.7493 25.0102 14.7362" fill="#F9B2C5"/>
<path d="M26.0831 28.2955C26.0831 28.2955 26.2465 28.5994 26.3177 28.9608C26.3704 29.2175 26.3757 29.503 26.2413 29.7256C24.8732 28.7958 21.9763 28.1044 21.9763 28.1044C24.201 28.1044 26.518 26.9048 27.0558 26.6088C27.0558 26.6088 27.0558 26.6088 27.0584 26.6088C27.0663 26.6429 27.0742 26.6769 27.0769 26.7084C27.3747 28.2353 26.0831 28.2955 26.0831 28.2955Z" fill="#F2217C"/>
</svg>
