<svg width="18" height="18" viewBox="0 0 18 18" fill="none" xmlns="http://www.w3.org/2000/svg">
<g opacity="0.4" clip-path="url(#clip0)">
<path d="M17.4818 13.4939L14.8802 10.8912C14.5309 10.5436 14.063 10.352 13.5631 10.352C13.0428 10.352 12.5516 10.5569 12.1801 10.9285L11.1674 11.941C10.3805 11.5036 9.33459 10.902 8.24869 9.81614C7.16406 8.73113 6.5624 7.68828 6.12277 6.8971L7.13644 5.88418C7.89008 5.12897 7.90549 3.91738 7.17091 3.18347L4.56983 0.582322C4.22142 0.23294 3.75357 0.0405273 3.25236 0.0405273C2.7437 0.0405273 2.26252 0.236366 1.89325 0.592821C1.66986 0.772725 0.548817 1.76234 0.131004 3.80323C-0.45398 6.65986 0.890082 9.40838 4.77022 13.2901C9.10465 17.6232 12.805 17.96 13.8358 17.96C14.0504 17.96 14.1799 17.9467 14.2145 17.9427C16.2359 17.7057 16.9597 16.808 17.4882 16.1525C18.1729 15.303 18.1706 14.1851 17.4818 13.4939ZM16.6186 15.4514C16.1218 16.0676 15.6527 16.6494 14.0845 16.8333C14.0837 16.8333 13.9979 16.8429 13.8358 16.8429C12.9135 16.8429 9.59082 16.5297 5.56005 12.5002C1.98186 8.92057 0.725965 6.46574 1.22524 4.02722C1.58966 2.2471 2.55717 1.49048 2.59477 1.46173L2.62813 1.43709L2.65739 1.40775C2.8189 1.24639 3.03016 1.15748 3.25228 1.15748C3.45452 1.15748 3.64158 1.23328 3.77948 1.37163L6.38115 3.97338C6.6805 4.27242 6.66456 4.77565 6.34608 5.0948L5.19972 6.24019L5.18088 6.25992C4.88213 6.58897 4.91728 7.03367 5.08184 7.32326C5.5567 8.18018 6.20713 9.3538 7.45871 10.6057C8.70612 11.8532 9.87803 12.5031 10.7326 12.977C10.8181 13.0251 10.9948 13.1056 11.2158 13.1056C11.4769 13.1056 11.7166 12.9951 11.894 12.7937L12.9699 11.7182C13.1305 11.5575 13.3411 11.4689 13.5629 11.4689C13.7656 11.4689 13.9536 11.545 14.0912 11.6818L16.6911 14.2828C17.0214 14.6143 16.885 15.121 16.6186 15.4514Z" fill="#801960"/>
</g>
<defs>
<clipPath id="clip0">
<rect width="18" height="18" fill="white"/>
</clipPath>
</defs>
</svg>
