<svg width="16" height="18" viewBox="0 0 16 18" fill="none" xmlns="http://www.w3.org/2000/svg">
<path d="M7 0C3.51067 0 0.671875 2.8388 0.671875 6.32812C0.671875 7.50705 0.998442 8.65758 1.61649 9.65574L6.63979 17.7507C6.73601 17.9058 6.90553 18 7.08786 18C7.08926 18 7.09063 18 7.09204 18C7.27594 17.9986 7.44582 17.9014 7.54028 17.7436L12.4355 9.57023C13.0195 8.59317 13.3281 7.47207 13.3281 6.32812C13.3281 2.8388 10.4893 0 7 0ZM11.5304 9.02876L7.07987 16.4597L2.5129 9.10005C1.99846 8.26924 1.71953 7.31074 1.71953 6.32812C1.71953 3.42035 4.09223 1.04766 7 1.04766C9.90777 1.04766 12.277 3.42035 12.277 6.32812C12.277 7.2816 12.0164 8.21559 11.5304 9.02876Z" fill="#C98CAC"/>
<path d="M7 3.16406C5.25534 3.16406 3.83594 4.58346 3.83594 6.32812C3.83594 8.06164 5.23224 9.49219 7 9.49219C8.78956 9.49219 10.1641 8.04259 10.1641 6.32812C10.1641 4.58346 8.74466 3.16406 7 3.16406ZM7 8.44453C5.83081 8.44453 4.88359 7.49415 4.88359 6.32812C4.88359 5.16502 5.83689 4.21172 7 4.21172C8.16311 4.21172 9.11289 5.16502 9.11289 6.32812C9.11289 7.47714 8.18772 8.44453 7 8.44453Z" fill="#C98CAC"/>
</svg>
