<svg width="70" height="70" viewBox="0 0 70 70" fill="none" xmlns="http://www.w3.org/2000/svg">
<g clip-path="url(#clip0)">
<path d="M35.0168 33.6875L31.3245 29.9953C30.1686 28.8395 28.6318 28.2031 26.9972 28.2031C25.3625 28.2031 23.8257 28.8396 22.6699 29.9954C21.7642 30.9013 21.1734 32.0479 20.9616 33.3113L20.4541 36.34C19.5797 41.5579 17.1402 46.2935 13.3991 50.0346C10.9635 52.4703 7.00001 52.4703 4.56395 50.0345C3.3838 48.8546 2.73411 47.2859 2.73411 45.6171C2.73411 43.9483 3.38393 42.3796 4.56382 41.1996L18.6438 27.1196C19.1777 26.5857 19.1777 25.72 18.6438 25.1861C18.1099 24.6523 17.2441 24.6523 16.7105 25.1861L2.63061 39.2662C0.934201 40.9626 0 43.2181 0 45.6172C0 48.0164 0.934201 50.2718 2.63061 51.9682C4.38171 53.7192 6.68146 54.5945 8.98148 54.5945C11.2814 54.5945 13.5815 53.7189 15.3325 51.9681C19.4784 47.8222 22.1818 42.5746 23.1508 36.7919L23.6583 33.7631C23.7754 33.0642 24.1022 32.4299 24.6034 31.9288C25.2428 31.2892 26.0931 30.9372 26.9972 30.9372C27.9015 30.9372 28.7517 31.2892 29.3909 31.9288L33.0831 35.621C33.617 36.1548 34.4827 36.1548 35.0166 35.621C35.5506 35.0873 35.5506 34.2216 35.0168 33.6875Z" fill="#801960"/>
<path d="M23.0642 20.7653C22.8099 20.511 22.4572 20.3647 22.0976 20.3647C21.738 20.3647 21.3853 20.5108 21.131 20.7653C20.8767 21.0197 20.7304 21.3722 20.7304 21.7319C20.7304 22.0928 20.8767 22.4442 21.131 22.6983C21.3853 22.954 21.738 23.0991 22.0976 23.0991C22.4572 23.0991 22.8099 22.954 23.0642 22.6983C23.3185 22.4442 23.4648 22.0927 23.4648 21.7319C23.4648 21.3722 23.3185 21.0196 23.0642 20.7653Z" fill="#801960"/>
<path d="M58.9792 9.72524L51.8566 2.60286C50.1788 0.925046 47.948 0.00109863 45.5753 0.00109863C43.2025 0.00109863 40.9717 0.925182 39.294 2.60286L24.9135 16.9834C24.3796 17.5173 24.3796 18.383 24.9135 18.9169C25.1805 19.1836 25.5304 19.3172 25.8802 19.3172C26.2301 19.3172 26.5801 19.1836 26.847 18.9167L41.2275 4.53648C42.3889 3.37505 43.9329 2.73534 45.5754 2.73534C47.2178 2.73534 48.7619 3.37505 49.9234 4.53648L57.0457 11.6589C57.5796 12.1926 58.4453 12.1926 58.9792 11.6589C59.5131 11.125 59.5131 10.2593 58.9792 9.72524Z" fill="#801960"/>
<path d="M12.1858 42.4127C10.4191 40.6459 7.54414 40.6459 5.77718 42.4127C4.01023 44.1797 4.01023 47.0547 5.77718 48.8217C6.66066 49.7052 7.821 50.1468 8.98147 50.1468C10.1419 50.1468 11.3024 49.7052 12.1858 48.8217C13.9526 47.0546 13.9526 44.1797 12.1858 42.4127ZM10.2525 46.8882C9.55172 47.5892 8.41149 47.589 7.71066 46.8882C7.00984 46.1874 7.00984 45.047 7.71066 44.3462C8.06107 43.9958 8.52141 43.8205 8.98174 43.8205C9.44207 43.8205 9.90241 43.9958 10.2527 44.3462C10.9534 45.047 10.9534 46.1875 10.2525 46.8882Z" fill="#801960"/>
<path d="M54.9853 13.7189L47.3398 6.0733C46.8058 5.53968 45.9402 5.53955 45.4064 6.0733C44.8726 6.60718 44.8724 7.47289 45.4064 8.00691L53.0519 15.6525C53.3188 15.9194 53.6687 16.053 54.0187 16.053C54.3685 16.053 54.7185 15.9194 54.9854 15.6525C55.5191 15.1186 55.5193 14.2529 54.9853 13.7189Z" fill="#F9D7E0"/>
<path d="M50.9915 17.7126L43.3459 10.067C42.812 9.53325 41.9463 9.53325 41.4124 10.067C40.8786 10.6009 40.8786 11.4666 41.4124 12.0005L49.058 19.6461C49.3251 19.913 49.6751 20.0465 50.0249 20.0465C50.3748 20.0465 50.7248 19.913 50.9917 19.6461C51.5254 19.1123 51.5254 18.2466 50.9915 17.7126Z" fill="#F9D7E0"/>
<path d="M46.9977 21.7063L39.3522 14.0607C38.8184 13.527 37.9526 13.527 37.4189 14.0607C36.885 14.5946 36.8849 15.4603 37.4189 15.9942L45.0644 23.6398C45.3314 23.9067 45.6812 24.0402 46.0311 24.0402C46.381 24.0402 46.731 23.9067 46.9978 23.6398C47.5316 23.106 47.5317 22.2403 46.9977 21.7063Z" fill="#F9D7E0"/>
<path d="M43.004 25.7L35.3584 18.0545C34.8245 17.5208 33.9588 17.5208 33.4251 18.0545C32.8912 18.5884 32.8912 19.4541 33.4251 19.988L41.0707 27.6335C41.3377 27.9004 41.6875 28.0339 42.0374 28.0339C42.3873 28.0339 42.7373 27.9004 43.0041 27.6335C43.5379 27.0997 43.5379 26.234 43.004 25.7Z" fill="#F9D7E0"/>
<path d="M39.0103 29.6939L31.3648 22.0483C30.8309 21.5147 29.9652 21.5145 29.4315 22.0483C28.8976 22.5822 28.8974 23.4479 29.4315 23.9819L37.077 31.6275C37.344 31.8944 37.6938 32.0279 38.0437 32.0279C38.3936 32.0279 38.7436 31.8944 39.0104 31.6275C39.5442 31.0936 39.5443 30.2279 39.0103 29.6939Z" fill="#F9D7E0"/>
<path d="M62.5025 42.8398C63.7931 41.3758 64.4995 39.5167 64.4995 37.5479C64.4995 35.4067 63.6657 33.3934 62.1516 31.8793C59.0262 28.7541 53.9403 28.7541 50.8149 31.8793C49.3007 33.3935 48.467 35.4067 48.467 37.5479C48.467 39.5083 49.1678 41.3601 50.4479 42.8212H43.272C42.5169 42.8212 41.9048 43.4335 41.9048 44.1884C41.9048 44.9434 42.5169 45.5556 43.272 45.5556H55.9613C55.0072 46.642 54.3424 47.9868 54.0863 49.4707H22.3252C22.9293 47.2188 24.9881 45.5556 27.428 45.5556H32.8135C33.5686 45.5556 34.1807 44.9434 34.1807 44.1884C34.1807 43.4335 33.5686 42.8212 32.8135 42.8212H27.428C23.0077 42.8212 19.4116 46.4175 19.4116 50.8378C19.4116 51.5927 20.0237 52.205 20.7788 52.205H39.893L26.3805 65.7174C25.8466 66.2513 25.8466 67.117 26.3805 67.6509C27.8946 69.1651 29.9077 69.9988 32.0488 69.9988C34.19 69.9988 36.2032 69.1649 37.7171 67.6509L53.1633 52.205H54.0863C54.7374 55.9759 58.0297 58.8541 61.9837 58.8541C66.404 58.8541 70.0001 55.258 70.0001 50.8378C70.0001 46.592 66.6817 43.1084 62.5025 42.8398ZM35.7837 65.7173C34.7861 66.7151 33.4596 67.2644 32.0488 67.2644C31.1059 67.2644 30.2007 67.019 29.4062 66.5584L43.7599 52.2048H49.2965L35.7837 65.7173ZM56.1873 42.8212C54.8876 42.7499 53.6759 42.2102 52.7484 41.2827C51.7507 40.2851 51.2013 38.9588 51.2013 37.5479C51.2013 36.1369 51.7507 34.8105 52.7484 33.8128C54.8078 31.7536 58.159 31.7534 60.2184 33.8128C61.2162 34.8105 61.7655 36.1369 61.7655 37.5479C61.7655 38.9588 61.2161 40.2851 60.2184 41.2827C59.2909 42.2104 58.0792 42.7499 56.7797 42.8212H56.1873ZM61.9836 56.1198C59.0711 56.1198 56.7015 53.7503 56.7015 50.8376C56.7015 47.925 59.0709 45.5553 61.9836 45.5553C64.8961 45.5553 67.2658 47.9248 67.2658 50.8376C67.2659 53.7501 64.8963 56.1198 61.9836 56.1198Z" fill="#801960"/>
<path d="M39.1813 43.2219C38.927 42.9678 38.5743 42.8214 38.2147 42.8214C37.8552 42.8214 37.5024 42.9676 37.2481 43.2219C36.9938 43.4762 36.8475 43.829 36.8475 44.1885C36.8475 44.5481 36.9938 44.9008 37.2481 45.1551C37.5024 45.4093 37.8553 45.5557 38.2147 45.5557C38.5743 45.5557 38.927 45.4094 39.1813 45.1551C39.4356 44.9008 39.5819 44.5481 39.5819 44.1885C39.5819 43.829 39.4356 43.4762 39.1813 43.2219Z" fill="#F9D7E0"/>
<path d="M51.9794 46.7532C51.7251 46.4989 51.3723 46.354 51.0128 46.354C50.6518 46.354 50.3005 46.4989 50.0462 46.7532C49.7919 47.0075 49.6456 47.3603 49.6456 47.7212C49.6456 48.0808 49.7919 48.4321 50.0462 48.6878C50.3005 48.942 50.6518 49.0884 51.0128 49.0884C51.3723 49.0884 51.7249 48.942 51.9794 48.6878C52.2337 48.4321 52.3799 48.0808 52.3799 47.7212C52.3799 47.3603 52.2337 47.0075 51.9794 46.7532Z" fill="#F9D7E0"/>
</g>
<defs>
<clipPath id="clip0">
<rect width="70" height="70" fill="white"/>
</clipPath>
</defs>
</svg>
