<svg width="12" height="12" viewBox="0 0 12 12" fill="none" xmlns="http://www.w3.org/2000/svg">
<g clip-path="url(#clip0)">
<path d="M11.8219 4.33746C11.6634 4.13866 11.4257 4.02461 11.1696 4.02461H8.85856L7.60538 1.15509C7.52768 0.977176 7.32045 0.895872 7.14251 0.973614C6.96457 1.05131 6.88331 1.25857 6.96103 1.4365L8.09131 4.02464H3.9087L5.03897 1.4365C5.11667 1.25857 5.03543 1.05133 4.85749 0.973614C4.67958 0.895872 4.47232 0.977129 4.39463 1.15509L3.14145 4.02464H0.830416C0.574337 4.02464 0.336611 4.13866 0.17815 4.33748C0.0225952 4.53267 -0.0348032 4.78359 0.0206734 5.02598L1.25482 10.4166C1.341 10.793 1.67398 11.0559 2.06456 11.0559H9.93544C10.326 11.0559 10.659 10.793 10.7452 10.4166L11.9793 5.02596C12.0348 4.78357 11.9774 4.53264 11.8219 4.33746ZM9.93544 10.3527H2.06456C2.00487 10.3527 1.95258 10.3136 1.94023 10.2596L0.70608 4.86907C0.6964 4.82676 0.712642 4.79493 0.728017 4.77569C0.742267 4.75779 0.774541 4.72776 0.830416 4.72776H2.83439L2.74231 4.93863C2.66461 5.11657 2.74585 5.3238 2.92378 5.40152C2.96958 5.42154 3.0173 5.431 3.06429 5.431C3.19981 5.431 3.32895 5.35218 3.38665 5.22007L3.60164 4.72781H8.39841L8.6134 5.22007C8.6711 5.35221 8.80024 5.431 8.93576 5.431C8.98273 5.431 9.03047 5.42154 9.07627 5.40152C9.2542 5.32382 9.33546 5.11657 9.25774 4.93863L9.16566 4.72776H11.1696C11.2255 4.72776 11.2578 4.75779 11.272 4.77569C11.2874 4.79496 11.3036 4.82679 11.294 4.86904L10.0598 10.2597C10.0474 10.3136 9.99513 10.3527 9.93544 10.3527Z" fill="#801960"/>
<path d="M3.89062 6.25119C3.69647 6.25119 3.53906 6.4086 3.53906 6.60275V9.18088C3.53906 9.37503 3.69647 9.53244 3.89062 9.53244C4.08478 9.53244 4.24219 9.37503 4.24219 9.18088V6.60275C4.24219 6.4086 4.0848 6.25119 3.89062 6.25119Z" fill="#801960"/>
<path d="M6 6.25119C5.80584 6.25119 5.64844 6.4086 5.64844 6.60275V9.18088C5.64844 9.37503 5.80584 9.53244 6 9.53244C6.19416 9.53244 6.35156 9.37503 6.35156 9.18088V6.60275C6.35156 6.4086 6.19416 6.25119 6 6.25119Z" fill="#801960"/>
<path d="M8.10938 6.25119C7.91522 6.25119 7.75781 6.4086 7.75781 6.60275V9.18088C7.75781 9.37503 7.91522 9.53244 8.10938 9.53244C8.30353 9.53244 8.46094 9.37503 8.46094 9.18088V6.60275C8.46091 6.4086 8.30353 6.25119 8.10938 6.25119Z" fill="#801960"/>
</g>
<defs>
<clipPath id="clip0">
<rect width="12" height="12" fill="white"/>
</clipPath>
</defs>
</svg>
