<svg width="12" height="12" viewBox="0 0 12 12" fill="none" xmlns="http://www.w3.org/2000/svg">
<path d="M11.8534 11.1473L8.44091 7.73481C9.10191 6.91833 9.4999 5.88083 9.4999 4.75085C9.4999 2.13187 7.36891 0.00088501 4.74994 0.00088501C2.13096 0.00088501 0 2.13185 0 4.75082C0 7.3698 2.13099 9.50078 4.74996 9.50078C5.87994 9.50078 6.91744 9.1028 7.73392 8.4418L11.1464 11.8543C11.2439 11.9518 11.3719 12.0008 11.4999 12.0008C11.6279 12.0008 11.7559 11.9518 11.8534 11.8543C12.0489 11.6588 12.0489 11.3428 11.8534 11.1473ZM4.74996 8.50079C2.68197 8.50079 0.999998 6.81881 0.999998 4.75082C0.999998 2.68284 2.68197 1.00086 4.74996 1.00086C6.81795 1.00086 8.49992 2.68284 8.49992 4.75082C8.49992 6.81881 6.81793 8.50079 4.74996 8.50079Z" fill="#801960"/>
</svg>
