<svg width="12" height="12" viewBox="0 0 12 12" fill="none" xmlns="http://www.w3.org/2000/svg">
<path d="M5.91473 5.78045C6.70886 5.78045 7.39642 5.49563 7.95837 4.93368C8.52014 4.37182 8.80505 3.68435 8.80505 2.89013C8.80505 2.09619 8.52023 1.40863 7.95828 0.846587C7.39633 0.28482 6.70877 0 5.91473 0C5.12051 0 4.43304 0.28482 3.87119 0.846678C3.30933 1.40854 3.02441 2.0961 3.02441 2.89013C3.02441 3.68435 3.30933 4.37191 3.87119 4.93377C4.43323 5.49553 5.12079 5.78045 5.91473 5.78045ZM4.3685 1.3439C4.79962 0.912779 5.30536 0.703215 5.91473 0.703215C6.52402 0.703215 7.02985 0.912779 7.46106 1.3439C7.89218 1.77511 8.10184 2.28094 8.10184 2.89013C8.10184 3.49951 7.89218 4.00524 7.46106 4.43645C7.02985 4.86767 6.52402 5.07723 5.91473 5.07723C5.30554 5.07723 4.7998 4.86758 4.3685 4.43645C3.93729 4.00533 3.72763 3.49951 3.72763 2.89013C3.72763 2.28094 3.93729 1.77511 4.3685 1.3439Z" fill="#801960"/>
<path d="M10.9718 9.22741C10.9556 8.99359 10.9228 8.73852 10.8745 8.46917C10.8258 8.19781 10.7631 7.94128 10.688 7.70681C10.6104 7.46447 10.505 7.22516 10.3746 6.99582C10.2393 6.75778 10.0804 6.55051 9.90207 6.37994C9.71558 6.20151 9.48724 6.05804 9.22321 5.9534C8.96008 5.8493 8.66849 5.79657 8.35657 5.79657C8.23407 5.79657 8.1156 5.84683 7.88681 5.99579C7.746 6.08762 7.5813 6.19382 7.39746 6.31128C7.24026 6.41144 7.02731 6.50528 6.76428 6.59024C6.50766 6.67328 6.2471 6.71539 5.98984 6.71539C5.73276 6.71539 5.4722 6.67328 5.21539 6.59024C4.95264 6.50537 4.73959 6.41153 4.58267 6.31137C4.40057 6.19501 4.23578 6.08881 4.09286 5.9957C3.86426 5.84674 3.74579 5.79648 3.62329 5.79648C3.31128 5.79648 3.01978 5.8493 2.75674 5.95349C2.49289 6.05795 2.26447 6.20142 2.07779 6.38003C1.89944 6.55069 1.74051 6.75787 1.60538 6.99582C1.4751 7.22516 1.36963 7.46438 1.29199 7.70691C1.21701 7.94137 1.1543 8.19781 1.10559 8.46917C1.05725 8.73815 1.02457 8.99331 1.00836 9.22769C0.992432 9.45684 0.984375 9.69534 0.984375 9.9363C0.984375 10.5627 1.1835 11.0698 1.57617 11.4438C1.96399 11.8129 2.47705 12 3.10117 12H8.87924C9.50317 12 10.0162 11.8129 10.4041 11.4438C10.7969 11.0701 10.996 10.5628 10.996 9.93621C10.9959 9.69442 10.9878 9.45593 10.9718 9.22741ZM9.91928 10.9343C9.66302 11.1782 9.32281 11.2968 8.87915 11.2968H3.10117C2.65741 11.2968 2.3172 11.1782 2.06104 10.9344C1.80972 10.6952 1.68759 10.3686 1.68759 9.9363C1.68759 9.71145 1.69501 9.48943 1.70984 9.2763C1.7243 9.06719 1.75388 8.83749 1.79773 8.59341C1.84103 8.35235 1.89615 8.12612 1.9617 7.92132C2.0246 7.72494 2.11038 7.53048 2.21677 7.34317C2.3183 7.16464 2.43512 7.01147 2.56403 6.88806C2.6846 6.77261 2.83658 6.67813 3.01566 6.60727C3.18127 6.54172 3.3674 6.50583 3.56946 6.50043C3.59409 6.51352 3.63794 6.53851 3.70898 6.58484C3.85355 6.67904 4.02017 6.78653 4.20438 6.90417C4.41202 7.03656 4.67953 7.15613 4.99915 7.25931C5.3259 7.36496 5.65915 7.41861 5.98993 7.41861C6.32071 7.41861 6.65405 7.36496 6.98062 7.2594C7.30051 7.15603 7.56793 7.03656 7.77585 6.90399C7.96436 6.78351 8.12631 6.67914 8.27087 6.58484C8.34192 6.5386 8.38577 6.51352 8.4104 6.50043C8.61255 6.50583 8.79868 6.54172 8.96439 6.60727C9.14337 6.67813 9.29535 6.7727 9.41592 6.88806C9.54483 7.01138 9.66165 7.16455 9.76318 7.34326C9.86966 7.53048 9.95554 7.72503 10.0183 7.92123C10.084 8.12631 10.1392 8.35244 10.1824 8.59332C10.2262 8.83785 10.2558 9.06765 10.2703 9.27639V9.27657C10.2852 9.48888 10.2927 9.71081 10.2928 9.9363C10.2927 10.3687 10.1706 10.6952 9.91928 10.9343Z" fill="#801960"/>
</svg>
