<svg width="141" height="55" viewBox="0 0 141 55" fill="none" xmlns="http://www.w3.org/2000/svg">
<g clip-path="url(#clip0_15_18)">
<path d="M13.6566 13.8759L2.59692 45.36H136.024C138.772 45.36 141 43.1463 141 40.4154V13.8759" fill="#801960"/>
<path d="M19.3489 15.6709C19.4233 16.0403 19.7097 16.7326 20.3211 18.1309C21.4584 20.7276 23.3118 22.1067 23.4826 23.0863C23.5018 23.193 23.4991 23.297 23.4743 23.3955C23.2209 24.3998 21.329 24.5256 20.8223 24.6488C20.6213 24.698 20.5386 24.7692 20.5634 24.9689C20.5662 24.9908 20.5689 25.0127 20.5744 25.0373C20.5827 25.0811 20.5937 25.1276 20.6102 25.1824C20.624 25.2261 20.6378 25.2726 20.6543 25.3246C20.6653 25.3602 20.6791 25.3958 20.6929 25.4341C20.7039 25.4697 20.7176 25.5052 20.7314 25.5435C20.7479 25.5901 20.7645 25.6338 20.7837 25.6831C20.792 25.7077 20.803 25.7323 20.8113 25.7597C20.8278 25.809 20.8498 25.8582 20.8691 25.9129C20.9049 26.006 20.9435 26.11 20.9848 26.2194C20.9903 26.2331 20.9958 26.2495 21.0013 26.2632C21.0371 26.359 21.0756 26.4602 21.1142 26.5669C21.1803 26.7475 21.2519 26.9445 21.329 27.158C21.3648 27.2592 21.3951 27.355 21.4199 27.4453C21.4337 27.4973 21.4474 27.552 21.4584 27.6013C21.4667 27.6368 21.475 27.6697 21.4805 27.7025C21.7917 29.3032 20.445 29.3634 20.445 29.3634C20.445 29.3634 20.445 29.3634 20.445 29.3662C20.445 29.3662 20.6157 29.6836 20.6901 30.0612C20.7424 30.3294 20.7479 30.6249 20.6075 30.8575C20.5662 30.9259 20.5139 30.9888 20.4423 31.0435C19.8116 31.5443 19.5582 32.4226 19.5582 32.4226C19.5582 32.4226 19.5582 32.4226 19.5582 32.4254C19.6849 32.8331 19.7813 33.2107 19.8502 33.561C20.613 37.3918 18.0271 37.7639 13.7475 37.1893C9.07684 36.5627 8.82348 38.3194 8.82348 38.3194C7.16563 42.4786 7.03619 45.8251 7.54016 48.3945C8.19008 51.7137 9.89475 53.7413 10.7375 54.5731C11.0211 54.8523 11.2084 54.9973 11.2194 55.0055C11.2167 55.0055 11.2139 55.0027 11.2112 55C9.41832 54.0697 7.9202 52.8876 6.70572 51.6836C3.82238 48.8269 2.51152 45.8525 2.51152 45.8525C1.50635 43.8057 0.83715 41.8301 0.440588 39.9284C-2.09852 27.7244 6.73602 18.5687 11.9795 13.3587C17.8618 7.51397 16.7272 0.48984 16.6556 0.0793937C16.6556 0.0766574 16.6556 0.0739216 16.6556 0.0711853C16.6556 0.0629764 16.6529 0.0602417 16.6529 0.0602417C16.6529 0.0602417 16.6529 0.0602403 16.6529 0.0629766C18.14 1.77865 18.9496 3.85278 19.36 5.88039C20.2412 10.2229 19.3021 14.3629 19.3021 14.3629C19.3269 14.6147 19.3269 15.2222 19.3269 15.2085" fill="#F9B2C5"/>
<path d="M20.4478 29.3744C20.4478 29.3744 20.6185 29.6918 20.6929 30.0694C20.7479 30.3376 20.7534 30.6358 20.613 30.8684C19.1837 29.897 16.1572 29.1746 16.1572 29.1746C18.4815 29.1746 20.9021 27.9214 21.4639 27.6122C21.4639 27.6122 21.4639 27.6122 21.4667 27.6122C21.475 27.6478 21.4832 27.6834 21.486 27.7162C21.7972 29.3115 20.4478 29.3744 20.4478 29.3744Z" fill="#F2217C"/>
<path d="M37.7159 26.0909C37.6307 25.3712 37.285 24.8125 36.679 24.4148C36.0729 24.017 35.3295 23.8182 34.4489 23.8182C33.8049 23.8182 33.2415 23.9223 32.7585 24.1307C32.2803 24.339 31.9063 24.6255 31.6364 24.9901C31.3712 25.3546 31.2386 25.7689 31.2386 26.233C31.2386 26.6212 31.331 26.955 31.5156 27.2344C31.705 27.509 31.9465 27.7386 32.2401 27.9233C32.5336 28.1032 32.8414 28.2524 33.1634 28.3707C33.4853 28.4844 33.7812 28.5767 34.0511 28.6477L35.5284 29.0455C35.9072 29.1449 36.3286 29.2822 36.7926 29.4574C37.2614 29.6326 37.7088 29.8717 38.1349 30.1747C38.5658 30.473 38.9209 30.8565 39.2003 31.3253C39.4796 31.794 39.6193 32.3693 39.6193 33.0511C39.6193 33.8371 39.4134 34.5473 39.0014 35.1818C38.5942 35.8163 37.9976 36.3205 37.2116 36.6946C36.4304 37.0687 35.4811 37.2557 34.3636 37.2557C33.322 37.2557 32.42 37.0876 31.6577 36.7514C30.9001 36.4152 30.3035 35.9465 29.8679 35.3452C29.437 34.7438 29.1932 34.0455 29.1364 33.25H30.9545C31.0019 33.7992 31.1866 34.2538 31.5085 34.6136C31.8352 34.9687 32.2472 35.2339 32.7443 35.4091C33.2462 35.5795 33.786 35.6648 34.3636 35.6648C35.036 35.6648 35.6397 35.5559 36.1747 35.3381C36.7098 35.1155 37.1335 34.8078 37.446 34.4148C37.7585 34.017 37.9148 33.553 37.9148 33.0227C37.9148 32.5398 37.7798 32.1468 37.5099 31.8438C37.2401 31.5407 36.8849 31.2945 36.4446 31.1051C36.0043 30.9157 35.5284 30.75 35.017 30.608L33.2273 30.0966C32.0909 29.7699 31.1913 29.3035 30.5284 28.6974C29.8655 28.0914 29.5341 27.2983 29.5341 26.3182C29.5341 25.5038 29.7543 24.7936 30.1946 24.1875C30.6397 23.5767 31.2363 23.1032 31.9844 22.767C32.7372 22.4261 33.5777 22.2557 34.5057 22.2557C35.4432 22.2557 36.2765 22.4238 37.0057 22.7599C37.7348 23.0914 38.3125 23.5459 38.7386 24.1236C39.1695 24.7012 39.3968 25.357 39.4205 26.0909H37.7159ZM44.2766 22.4545V37H42.5153V22.4545H44.2766ZM47.0128 24.017V22.4545H57.9219V24.017H53.348V37H51.5866V24.017H47.0128ZM60.6403 37V22.4545H69.4187V24.017H62.4016V28.9318H68.9641V30.4943H62.4016V35.4375H69.5323V37H60.6403ZM89.7525 22.4545V37H88.0479L80.1218 25.5795H79.9798V37H78.2184V22.4545H79.9229L87.8775 33.9034H88.0195V22.4545H89.7525ZM93.8736 37H92.027L97.3679 22.4545H99.1861L104.527 37H102.68L98.3338 24.7557H98.2202L93.8736 37ZM94.5554 31.3182H101.999V32.8807H94.5554V31.3182ZM106.793 22.4545H108.895L113.838 34.5284H114.009L118.952 22.4545H121.054V37H119.406V25.9489H119.264L114.719 37H113.128L108.582 25.9489H108.44V37H106.793V22.4545ZM124.586 37V22.4545H133.364V24.017H126.347V28.9318H132.909V30.4943H126.347V35.4375H133.478V37H124.586Z" fill="white"/>
</g>
<defs>
<clipPath id="clip0_15_18">
<rect width="141" height="55" fill="white"/>
</clipPath>
</defs>
</svg>
