<svg width="70" height="70" viewBox="0 0 70 70" fill="none" xmlns="http://www.w3.org/2000/svg">
<g clip-path="url(#clip0)">
<path d="M22.4751 64.2571H15.877C15.3105 64.2571 14.8514 64.7162 14.8514 65.2826C14.8514 65.849 15.3105 66.3081 15.877 66.3081H22.4751C23.0416 66.3081 23.5007 65.849 23.5007 65.2826C23.5007 64.7162 23.0416 64.2571 22.4751 64.2571Z" fill="#F9D7E0"/>
<path d="M30.755 33.9701H30.2885V25.9916C30.2885 24.8229 29.3378 23.8722 28.1691 23.8722H27.9923V4.71136C27.9978 4.54591 27.9991 4.3832 27.9923 4.22185C27.9704 3.68174 27.8802 3.17309 27.7147 2.70818C27.5164 2.13936 27.2074 1.63481 26.7849 1.21229C24.3182 -1.25442 19.0443 0.155326 14.7781 4.42285C12.7736 6.4274 11.3994 8.65619 10.7622 10.71C10.5133 11.5112 10.3766 12.2879 10.3588 13.0126V13.338V23.8722H10.1842C9.01554 23.8722 8.06482 24.8229 8.06482 25.9916V33.9701H7.59718C6.4285 33.9701 5.47777 34.9208 5.47777 36.0895V65.5561C5.47777 68.0064 7.47125 70 9.92169 70H28.4305C30.881 70 32.8744 68.0064 32.8744 65.5561V36.0895C32.8744 34.9208 31.9237 33.9701 30.755 33.9701ZM16.2275 5.87225C18.8077 3.29205 21.6163 2.05322 23.5265 2.05322C24.3032 2.05322 24.9308 2.25832 25.3341 2.66169C26.7288 4.0564 25.7539 8.13933 22.1236 11.7683C18.4946 15.3973 14.4117 16.3736 13.0183 14.9789C11.6236 13.5842 12.5986 9.50122 16.2275 5.87225ZM12.4099 17.0668C13.1004 17.4538 13.9194 17.6411 14.8205 17.6411C17.4308 17.6411 20.7275 16.0659 23.5744 13.2191C24.5028 12.2906 25.2945 11.3143 25.9412 10.3312V23.8722H12.4099V17.0668ZM10.1159 25.9916C10.1159 25.9538 10.1466 25.9232 10.1842 25.9232H28.1691C28.2067 25.9232 28.2375 25.9538 28.2375 25.9916V33.9701H10.1159V25.9916ZM7.59718 36.0211H30.755C30.7926 36.0211 30.8234 36.0518 30.8234 36.0895V41.3538H24.0957C23.5292 41.3538 23.0702 41.813 23.0702 42.3794C23.0702 42.9457 23.5292 43.4049 24.0957 43.4049H30.8234V60.5652H7.52881V43.4049H19.31C19.8765 43.4049 20.3355 42.9457 20.3355 42.3794C20.3355 41.813 19.8765 41.3538 19.31 41.3538H7.52881V36.0895C7.52881 36.0518 7.55944 36.0211 7.59718 36.0211ZM28.4305 67.949H9.92169C8.60232 67.949 7.52881 66.8754 7.52881 65.5561V62.6163H30.8234V65.5561C30.8234 66.8754 29.7499 67.949 28.4305 67.949Z" fill="#801960"/>
<path d="M63.4967 53.31C64.0632 53.31 64.5222 52.8509 64.5222 52.2845V36.0895C64.5222 34.9208 63.5715 33.9701 62.4028 33.9701H39.2454C38.0767 33.9701 37.126 34.9208 37.126 36.0895V65.5561C37.126 68.0064 39.1194 70 41.5699 70H60.0783C62.5287 70 64.5222 68.0064 64.5222 65.5561V57.0702C64.5222 56.5039 64.0632 56.0447 63.4967 56.0447C62.9302 56.0447 62.4712 56.5039 62.4712 57.0702V65.5561C62.4712 66.8754 61.3977 67.949 60.0783 67.949H41.5699C40.2505 67.949 39.177 66.8754 39.177 65.5561V43.4049H62.4712V52.2845C62.4712 52.8509 62.9303 53.31 63.4967 53.31ZM39.177 41.3538V36.0895C39.177 36.0512 39.2071 36.0211 39.2454 36.0211H62.4028C62.4404 36.0211 62.4712 36.0518 62.4712 36.0895V41.3538H39.177Z" fill="#F9D7E0"/>
<path d="M48.9908 48.0656C47.7856 48.0656 46.8049 49.0461 46.8049 50.2514V61.1024C46.8049 62.3077 47.7856 63.2882 48.9908 63.2882H52.6572C53.8624 63.2882 54.8431 62.3077 54.8431 61.1024V50.2514C54.8431 49.0461 53.8624 48.0656 52.6572 48.0656H48.9908ZM52.7922 50.2514V61.1024C52.7922 61.1767 52.7317 61.2372 52.6574 61.2372H48.9909C48.9165 61.2372 48.8561 61.1767 48.8561 61.1024V50.2514C48.8561 50.177 48.9165 50.1166 48.9909 50.1166H52.6574C52.7317 50.1166 52.7922 50.177 52.7922 50.2514Z" fill="#801960"/>
</g>
<defs>
<clipPath id="clip0">
<rect width="70" height="70" fill="white"/>
</clipPath>
</defs>
</svg>
