<svg width="270" height="24" viewBox="0 0 270 24" fill="none" xmlns="http://www.w3.org/2000/svg">
<path d="M39.4426 20.6394C39.4426 21.9894 38.3229 23.0844 36.9431 23.0844H2.4995C1.11974 23.0844 0 21.9881 0 20.6394V2.4505C0 1.09912 1.11974 0.00488281 2.4995 0.00488281H36.9431C38.3236 0.00488281 39.4426 1.09912 39.4426 2.4505V20.6394Z" fill="white"/>
<path d="M17.0678 7.66504L15.7139 15.4389H17.8793L19.2339 7.66504H17.0678Z" fill="#07085B"/>
<path d="M13.8986 7.67344L11.778 12.975L11.5522 12.1748C11.1335 11.2106 9.94598 9.82498 8.55225 8.95233L10.4912 15.4357L12.7824 15.4316L16.1926 7.67139L13.8986 7.67344Z" fill="#07085B"/>
<path d="M10.7303 8.35705C10.6038 7.83455 10.2396 7.67862 9.78597 7.66016H6.42884L6.40088 7.83113C9.78597 9.70706 11.0364 11.0961 11.7543 13.0794L10.7303 8.35705Z" fill="#07085B"/>
<path d="M23.6227 9.15531C24.3321 9.14437 24.8452 9.29551 25.2436 9.4528L25.4393 9.5424L25.7315 7.85796C25.3037 7.70066 24.6306 7.53174 23.7918 7.53174C21.6523 7.53174 20.1446 8.58562 20.1335 10.097C20.1188 11.2138 21.2078 11.8369 22.0298 12.2096C22.8727 12.5912 23.1565 12.8333 23.1523 13.1746C23.1453 13.6943 22.4792 13.9323 21.8564 13.9323C20.9897 13.9323 20.5298 13.8147 19.8175 13.5268L19.5386 13.4009L19.2339 15.1401C19.7413 15.3583 20.6759 15.545 21.6467 15.5552C23.9232 15.5552 25.4023 14.5136 25.4183 12.8983C25.4281 12.0147 24.8501 11.341 23.5982 10.7878C22.8413 10.4274 22.3771 10.1873 22.382 9.82348C22.382 9.50068 22.7762 9.15531 23.6227 9.15531Z" fill="#07085B"/>
<path d="M31.2896 7.67334H29.6163C29.0969 7.67334 28.7104 7.81149 28.4818 8.31894L25.2666 15.4431H27.541C27.541 15.4431 27.9115 14.4856 27.9954 14.2757C28.2435 14.2757 30.4536 14.2784 30.7689 14.2784C30.8332 14.5492 31.0324 15.4431 31.0324 15.4431H33.0412L31.2896 7.67334ZM28.6181 12.6836C28.7971 12.237 29.4807 10.5108 29.4807 10.5108C29.4688 10.532 29.6575 10.0615 29.77 9.7688L29.9154 10.439C29.9154 10.439 30.3313 12.2951 30.418 12.6836H28.6181Z" fill="#07085B"/>
<path d="M85.178 20.9373C85.178 22.2866 84.0589 23.3822 82.6785 23.3822H48.2349C46.8544 23.3822 45.7354 22.2859 45.7354 20.9373V2.74767C45.7354 1.39697 46.8544 0.302734 48.2349 0.302734H82.6785C84.0589 0.302734 85.178 1.39697 85.178 2.74767V20.9373Z" fill="white"/>
<path d="M62.1004 5.92302L58.4476 14.4478H56.0649L54.2671 7.64302C54.1581 7.22516 54.0637 7.07128 53.7317 6.89484C53.19 6.60692 52.2946 6.33746 51.5083 6.16991L51.5607 5.92233H55.3973C55.8852 5.92233 56.3256 6.24035 56.4367 6.79088L57.3859 11.7252L59.7302 5.92302H62.1004ZM65.322 5.92302L63.4578 14.4478H61.2037L63.0678 5.92302H65.322ZM71.4372 11.6643C71.4463 9.415 68.2576 9.29053 68.2786 8.2852C68.2863 7.9795 68.584 7.65396 69.2348 7.57121C69.557 7.53018 70.4489 7.49803 71.4582 7.95283L71.8531 6.14392C71.3107 5.95174 70.6124 5.76709 69.7443 5.76709C67.516 5.76709 65.9475 6.92493 65.9357 8.58475C65.921 9.81303 67.0554 10.4969 67.9081 10.9052C68.7874 11.3231 69.0817 11.5912 69.0775 11.9646C69.0712 12.5363 68.3757 12.7893 67.7292 12.7996C66.5948 12.8167 65.9377 12.4994 65.4135 12.2607L65.0053 14.1284C65.5323 14.3664 66.5046 14.5702 67.5111 14.5812C69.8806 14.5818 71.4295 13.4363 71.4372 11.6643ZM77.3211 14.4478H79.4054L77.5846 5.92302H75.6618C75.2284 5.92302 74.8635 6.16922 74.7021 6.54742L71.3198 14.4478H73.6872L74.1562 13.1744H77.0485L77.3211 14.4478ZM74.8048 11.4277L75.9924 8.2257L76.6746 11.4277H74.8048ZM68.2073 16.7949H67.2916V17.6293H68.3156V17.8803H66.9827V15.566H68.2632V15.8156H67.2916V16.5467H68.2073V16.7949ZM68.7888 15.4422H69.0971V17.8796H68.7888V15.4422ZM69.8757 17.1034C69.8827 17.513 70.1462 17.6813 70.458 17.6813C70.6788 17.6813 70.8165 17.643 70.9284 17.5951L70.9843 17.8098C70.8752 17.8577 70.6858 17.9165 70.416 17.9165C69.8932 17.9165 69.5815 17.5773 69.5815 17.076C69.5815 16.5747 69.8834 16.1822 70.3776 16.1822C70.9354 16.1822 71.0793 16.6554 71.0793 16.9625C71.0793 17.024 71.0759 17.0678 71.0682 17.1027H69.8757V17.1034ZM70.7816 16.8873C70.7851 16.6992 70.7005 16.3996 70.3538 16.3996C70.0379 16.3996 69.9044 16.6773 69.8799 16.8873H70.7816ZM72.7597 17.8215C72.6786 17.8598 72.4996 17.9186 72.2718 17.9186C71.7594 17.9186 71.4267 17.578 71.4267 17.0705C71.4267 16.559 71.7839 16.1849 72.3389 16.1849C72.5213 16.1849 72.6828 16.2287 72.7666 16.2731L72.6967 16.5043C72.6227 16.4653 72.5066 16.4249 72.3389 16.4249C71.9489 16.4249 71.7392 16.7101 71.7392 17.0534C71.7392 17.4385 71.9915 17.6744 72.3284 17.6744C72.5031 17.6744 72.6199 17.6341 72.7072 17.5965L72.7597 17.8215ZM73.6257 15.8197V16.2177H74.0674V16.4475H73.6257V17.3448C73.6257 17.55 73.6851 17.6676 73.857 17.6676C73.9409 17.6676 73.9905 17.6607 74.036 17.6478L74.0499 17.8782C73.9905 17.8974 73.8955 17.9193 73.776 17.9193C73.632 17.9193 73.5159 17.8714 73.4425 17.7914C73.358 17.6984 73.3237 17.55 73.3237 17.355V16.4475H73.0602V16.2177H73.3237V15.9086L73.6257 15.8197ZM74.4987 16.7368C74.4987 16.5405 74.4945 16.373 74.4847 16.2177H74.7545L74.7685 16.5467H74.779C74.8566 16.3244 75.046 16.1828 75.2529 16.1828C75.2843 16.1828 75.3088 16.1869 75.3367 16.1897V16.4756C75.3053 16.4673 75.2738 16.4673 75.2312 16.4673C75.0138 16.4673 74.8601 16.6253 74.8174 16.8524C74.8104 16.8948 74.8069 16.9447 74.8069 16.9933V17.8796H74.4987V16.7368ZM77.2351 17.0357C77.2351 17.6491 76.7969 17.9172 76.3894 17.9172C75.933 17.9172 75.5751 17.5876 75.5751 17.0623C75.5751 16.5091 75.9511 16.1835 76.4173 16.1835C76.9052 16.1835 77.2351 16.5303 77.2351 17.0357ZM75.891 17.0521C75.891 17.4159 76.1021 17.6915 76.4034 17.6915C76.6976 17.6915 76.9192 17.4207 76.9192 17.0466C76.9192 16.7655 76.7752 16.4106 76.4104 16.4106C76.0497 16.4106 75.891 16.7409 75.891 17.0521ZM77.7083 16.667C77.7083 16.492 77.7048 16.3559 77.6944 16.2184H77.9683L77.9858 16.492H77.9928C78.0774 16.3374 78.2738 16.1835 78.5541 16.1835C78.7889 16.1835 79.1538 16.321 79.1538 16.8914V17.8796H78.8456V16.9221C78.8456 16.6534 78.7435 16.4304 78.452 16.4304C78.2521 16.4304 78.0942 16.5713 78.0382 16.7402C78.0243 16.7778 78.0173 16.8284 78.0173 16.8797V17.8796H77.709L77.7083 16.667Z" fill="#1A1F71"/>
<path d="M131.271 20.7439C131.271 22.0967 130.152 23.1909 128.771 23.1909H94.3119C92.9301 23.1909 91.811 22.0953 91.811 20.7439V2.54884C91.811 1.19677 92.9308 0.102539 94.3119 0.102539H128.771C130.152 0.102539 131.271 1.19746 131.271 2.54884V20.7439Z" fill="white"/>
<path d="M103.361 21.0002V19.7432C103.361 19.2597 103.062 18.9457 102.548 18.9457C102.291 18.9457 102.012 19.0299 101.819 19.3021C101.669 19.0716 101.455 18.9457 101.134 18.9457C100.919 18.9457 100.705 19.0087 100.533 19.2398V18.9888H100.084V21.0002H100.533V19.8888C100.533 19.5325 100.727 19.365 101.027 19.365C101.327 19.365 101.477 19.553 101.477 19.8888V21.0002H101.927V19.8888C101.927 19.5325 102.142 19.365 102.42 19.365C102.72 19.365 102.87 19.553 102.87 19.8888V21.0002H103.361ZM110.023 18.9881H109.295V18.3802H108.845V18.9881H108.437V19.3855H108.845V20.3088C108.845 20.7704 109.037 21.0412 109.551 21.0412C109.744 21.0412 109.959 20.9783 110.108 20.8949L109.98 20.5173C109.851 20.6001 109.701 20.6213 109.594 20.6213C109.38 20.6213 109.294 20.4961 109.294 20.2862V19.3855H110.023L110.023 18.9881ZM113.836 18.9457C113.579 18.9457 113.408 19.0723 113.301 19.2398V18.9888H112.851V21.0002H113.301V19.869C113.301 19.5332 113.451 19.3438 113.729 19.3438C113.815 19.3438 113.922 19.3657 114.007 19.3869L114.136 18.9676C114.051 18.9457 113.922 18.9457 113.836 18.9457ZM108.074 19.155C107.86 19.008 107.56 18.9451 107.239 18.9451C106.725 18.9451 106.382 19.1961 106.382 19.5934C106.382 19.9292 106.64 20.1179 107.089 20.1802L107.303 20.2014C107.538 20.2438 107.667 20.3053 107.667 20.41C107.667 20.5577 107.496 20.6623 107.196 20.6623C106.896 20.6623 106.66 20.5577 106.51 20.4524L106.296 20.7875C106.531 20.955 106.853 21.0385 107.174 21.0385C107.774 21.0385 108.117 20.7676 108.117 20.3895C108.117 20.0331 107.838 19.8458 107.41 19.7815L107.196 19.7603C107.004 19.7404 106.853 19.698 106.853 19.5722C106.853 19.4252 107.004 19.341 107.239 19.341C107.496 19.341 107.753 19.4457 107.881 19.51L108.074 19.155ZM120.027 18.9457C119.77 18.9457 119.598 19.0723 119.492 19.2398V18.9888H119.042V21.0002H119.492V19.869C119.492 19.5332 119.641 19.3438 119.92 19.3438C120.005 19.3438 120.112 19.3657 120.197 19.3869L120.327 18.9676C120.241 18.9457 120.112 18.9457 120.027 18.9457ZM114.286 19.9935C114.286 20.6008 114.714 21.0405 115.379 21.0405C115.679 21.0405 115.893 20.9769 116.106 20.8107L115.893 20.4537C115.721 20.5809 115.55 20.6432 115.356 20.6432C114.992 20.6432 114.736 20.3908 114.736 19.9935C114.736 19.6153 114.993 19.365 115.356 19.3438C115.549 19.3438 115.721 19.4067 115.893 19.5318L116.106 19.1762C115.893 19.0066 115.679 18.9437 115.379 18.9437C114.715 18.9457 114.286 19.3855 114.286 19.9935ZM118.442 19.9935V18.9868H117.992V19.2378C117.842 19.0497 117.627 18.9437 117.35 18.9437C116.771 18.9437 116.322 19.3834 116.322 19.9921C116.322 20.5987 116.77 21.0392 117.35 21.0392C117.65 21.0392 117.863 20.9345 117.992 20.7451V20.9974H118.442V19.9935ZM116.793 19.9935C116.793 19.6365 117.029 19.3438 117.413 19.3438C117.778 19.3438 118.035 19.6153 118.035 19.9935C118.035 20.3498 117.778 20.6432 117.413 20.6432C117.029 20.622 116.793 20.3491 116.793 19.9935ZM111.416 18.9457C110.817 18.9457 110.388 19.365 110.388 19.9935C110.388 20.622 110.817 21.0412 111.438 21.0412C111.738 21.0412 112.038 20.9578 112.273 20.769L112.059 20.4551C111.887 20.5809 111.673 20.6651 111.459 20.6651C111.18 20.6651 110.902 20.5392 110.837 20.1836H112.359V20.0167C112.38 19.365 111.994 18.9457 111.416 18.9457ZM111.416 19.3233C111.695 19.3233 111.887 19.4901 111.931 19.804H110.859C110.903 19.5325 111.095 19.3233 111.416 19.3233ZM122.575 19.9935V18.1914H122.127V19.2378C121.976 19.0504 121.762 18.9451 121.484 18.9451C120.905 18.9451 120.455 19.3848 120.455 19.9928C120.455 20.6001 120.905 21.0398 121.484 21.0398C121.783 21.0398 121.997 20.9352 122.127 20.7464V20.9988H122.575V19.9935ZM120.926 19.9935C120.926 19.6365 121.162 19.3438 121.548 19.3438C121.912 19.3438 122.169 19.6153 122.169 19.9935C122.169 20.3498 121.911 20.6432 121.548 20.6432C121.162 20.622 120.926 20.3491 120.926 19.9935ZM105.89 19.9935V18.9868H105.439V19.2378C105.29 19.0497 105.075 18.9437 104.798 18.9437C104.22 18.9437 103.77 19.3834 103.77 19.9921C103.77 20.5987 104.22 21.0392 104.798 21.0392C105.097 21.0392 105.312 20.9345 105.439 20.7451V20.9974H105.89V19.9935ZM104.219 19.9935C104.219 19.6365 104.454 19.3438 104.84 19.3438C105.204 19.3438 105.461 19.6153 105.461 19.9935C105.461 20.3498 105.204 20.6432 104.84 20.6432C104.455 20.622 104.219 20.3491 104.219 19.9935Z" fill="black"/>
<path d="M114.672 3.70898H107.925V15.5712H114.672V3.70898Z" fill="#FF5F00"/>
<path d="M108.353 9.63997C108.353 7.22991 109.509 5.09205 111.288 3.70921C109.98 2.7032 108.332 2.09521 106.532 2.09521C102.269 2.09521 98.8208 5.46956 98.8208 9.63997C98.8208 13.8104 102.269 17.1847 106.532 17.1847C108.332 17.1847 109.98 16.5767 111.288 15.5714C109.509 14.2084 108.353 12.05 108.353 9.63997Z" fill="#EB001B"/>
<path d="M123.775 9.63977C123.775 13.8102 120.327 17.1845 116.064 17.1845C114.264 17.1845 112.616 16.5765 111.309 15.5712C113.108 14.1891 114.244 12.0505 114.244 9.64046C114.244 7.2304 113.087 5.09254 111.309 3.7097C112.616 2.70369 114.264 2.0957 116.064 2.0957C120.327 2.09502 123.775 5.48988 123.775 9.63977Z" fill="#F79E1B"/>
<path d="M177.517 20.7439C177.517 22.0967 176.397 23.1909 175.016 23.1909H140.557C139.175 23.1909 138.056 22.0953 138.056 20.7439V2.54884C138.056 1.19677 139.176 0.102539 140.557 0.102539H175.016C176.397 0.102539 177.517 1.19746 177.517 2.54884V20.7439Z" fill="white"/>
<path d="M161.102 15.9804H154.167V3.78516H161.102V15.9804Z" fill="#6C6BBD"/>
<path d="M154.607 9.88401C154.607 7.41035 155.79 5.20683 157.634 3.78638C156.286 2.74822 154.585 2.12793 152.736 2.12793C148.359 2.12793 144.811 5.60008 144.811 9.88332C144.811 14.1673 148.359 17.6387 152.736 17.6387C154.585 17.6387 156.286 17.0177 157.634 15.9809C155.791 14.5619 154.607 12.357 154.607 9.88401Z" fill="#D32011"/>
<path d="M170.459 9.88293C170.459 14.1662 166.91 17.6376 162.534 17.6376C160.685 17.6376 158.983 17.0167 157.634 15.9799C159.479 14.5601 160.662 12.3552 160.662 9.88157C160.662 7.40791 159.48 5.20439 157.634 3.78394C158.983 2.74578 160.685 2.12549 162.534 2.12549C166.909 2.12686 170.459 5.59969 170.459 9.88293Z" fill="#0099DF"/>
<path d="M163.448 19.4245C163.54 19.4245 163.672 19.4423 163.774 19.4806L163.633 19.9025C163.536 19.8629 163.439 19.8512 163.346 19.8512C163.047 19.8512 162.897 20.0413 162.897 20.3799V21.535H162.44V19.4751H162.892V19.7247C163.011 19.5455 163.183 19.4245 163.448 19.4245ZM161.755 19.8861H161.008V20.8155C161.008 21.0241 161.082 21.1616 161.312 21.1616C161.431 21.1616 161.581 21.1212 161.718 21.0439L161.849 21.4276C161.704 21.5275 161.474 21.5876 161.276 21.5876C160.735 21.5876 160.545 21.3025 160.545 20.8251V19.8861H160.119V19.4764H160.545V18.8521H161.008V19.4764H161.755V19.8861ZM155.897 20.3259C155.945 20.027 156.13 19.8259 156.455 19.8259C156.75 19.8259 156.941 20.0078 156.988 20.3259H155.897ZM157.464 20.505C157.459 19.8635 157.054 19.4245 156.464 19.4245C155.848 19.4245 155.416 19.8649 155.416 20.505C155.416 21.1609 155.865 21.587 156.494 21.587C156.811 21.587 157.102 21.5104 157.357 21.2984L157.133 20.9667C156.957 21.1034 156.733 21.1814 156.521 21.1814C156.226 21.1814 155.957 21.048 155.892 20.6787H157.455C157.459 20.6213 157.464 20.5673 157.464 20.505ZM159.475 20.0024C159.347 19.9251 159.089 19.8259 158.82 19.8259C158.569 19.8259 158.419 19.9169 158.419 20.068C158.419 20.2041 158.578 20.2438 158.776 20.2705L158.992 20.3005C159.449 20.3648 159.726 20.555 159.726 20.9161C159.726 21.3072 159.375 21.5876 158.767 21.5876C158.423 21.5876 158.107 21.5008 157.854 21.3189L158.071 20.9701C158.226 21.0863 158.455 21.1848 158.771 21.1848C159.083 21.1848 159.252 21.0946 159.252 20.9366C159.252 20.8183 159.133 20.754 158.882 20.7205L158.665 20.6924C158.194 20.6268 157.938 20.4202 157.938 20.0844C157.938 19.6741 158.283 19.4238 158.814 19.4238C159.149 19.4238 159.453 19.4963 159.673 19.6392L159.475 20.0024ZM165.122 19.8505C165.027 19.8505 164.94 19.8656 164.859 19.8984C164.778 19.9312 164.708 19.9764 164.649 20.0338C164.59 20.0913 164.545 20.1624 164.51 20.2438C164.476 20.3265 164.46 20.4154 164.46 20.5139C164.46 20.6124 164.476 20.6993 164.51 20.782C164.543 20.8641 164.59 20.9345 164.649 20.9927C164.708 21.0508 164.778 21.0959 164.859 21.1281C164.94 21.1616 165.027 21.1766 165.122 21.1766C165.217 21.1766 165.304 21.1616 165.384 21.1281C165.465 21.0959 165.536 21.0508 165.595 20.9927C165.655 20.9345 165.701 20.8641 165.737 20.782C165.769 20.7006 165.786 20.6124 165.786 20.5139C165.786 20.4154 165.769 20.3279 165.737 20.2438C165.702 20.1631 165.655 20.0913 165.595 20.0338C165.536 19.9764 165.465 19.9312 165.384 19.8984C165.304 19.867 165.217 19.8505 165.122 19.8505ZM165.122 19.4245C165.285 19.4245 165.436 19.4518 165.575 19.5079C165.713 19.5633 165.834 19.6399 165.936 19.737C166.039 19.8341 166.118 19.9504 166.175 20.0824C166.232 20.213 166.261 20.3573 166.261 20.5139C166.261 20.6692 166.232 20.8135 166.175 20.9455C166.118 21.0768 166.039 21.1937 165.936 21.2901C165.834 21.3879 165.715 21.4639 165.575 21.5199C165.436 21.5746 165.285 21.6027 165.122 21.6027C164.959 21.6027 164.808 21.5746 164.669 21.5199C164.53 21.4639 164.41 21.3879 164.309 21.2901C164.208 21.1937 164.129 21.0768 164.072 20.9455C164.014 20.8135 163.986 20.6692 163.986 20.5139C163.986 20.3573 164.015 20.2144 164.072 20.0824C164.13 19.9504 164.209 19.8341 164.309 19.737C164.411 19.6399 164.529 19.5633 164.669 19.5079C164.808 19.4518 164.958 19.4245 165.122 19.4245ZM153.22 20.505C153.22 20.1439 153.463 19.8471 153.859 19.8471C154.237 19.8471 154.492 20.1309 154.492 20.505C154.492 20.8825 154.237 21.1657 153.859 21.1657C153.463 21.1657 153.22 20.8695 153.22 20.505ZM154.924 20.505V19.4764H154.467V19.7268C154.322 19.5414 154.103 19.4245 153.802 19.4245C153.212 19.4245 152.75 19.8765 152.75 20.505C152.75 21.1349 153.212 21.5876 153.802 21.5876C154.102 21.5876 154.321 21.4707 154.467 21.2874V21.5357H154.924V20.505ZM152.345 21.5357V20.2431C152.345 19.7562 152.027 19.4306 151.517 19.4252C151.248 19.4211 150.972 19.5031 150.776 19.7924C150.631 19.5633 150.403 19.4252 150.081 19.4252C149.857 19.4252 149.636 19.4908 149.464 19.7315V19.4771H149.007V21.537H149.468V20.3942C149.468 20.0372 149.672 19.8478 149.983 19.8478C150.287 19.8478 150.441 20.042 150.441 20.3901V21.537H150.903V20.3942C150.903 20.0372 151.116 19.8478 151.417 19.8478C151.731 19.8478 151.88 20.042 151.88 20.3901V21.537H152.344V21.5357H152.345Z" fill="#110F0D"/>
<path d="M223.8 20.6483C223.8 21.9997 222.681 23.0939 221.302 23.0939H186.861C185.482 23.0939 184.363 21.9976 184.363 20.6483V2.46349C184.363 1.11279 185.483 0.0185547 186.861 0.0185547H221.3C222.682 0.0185547 223.8 1.11279 223.8 2.46349V20.6483Z" fill="white"/>
<path d="M200.655 12.4235L198.984 16.8272L198.807 15.9319C198.389 14.835 197.49 13.6826 196.441 13.2148L197.969 18.8727L199.775 18.87L202.462 12.4194H200.655V12.4235Z" fill="#025EA3"/>
<path d="M202.087 18.8808L203.155 12.4146H204.859L203.792 18.8808H202.087Z" fill="#025EA3"/>
<path d="M209.982 12.574C209.644 12.4448 209.113 12.3032 208.453 12.3032C206.765 12.3032 205.58 13.1807 205.568 14.4356C205.557 15.3657 206.416 15.8848 207.062 16.1932C207.729 16.5099 207.951 16.7123 207.951 16.9948C207.941 17.429 207.416 17.626 206.926 17.626C206.244 17.626 205.882 17.5282 205.322 17.2875L205.101 17.1856L204.862 18.6334C205.262 18.8139 205.998 18.9685 206.766 18.9767C208.557 18.9767 209.721 18.1088 209.736 16.7684C209.744 16.0305 209.286 15.4717 208.301 15.0121C207.705 14.7126 207.338 14.5136 207.345 14.2086C207.345 13.9391 207.652 13.6526 208.321 13.6526C208.881 13.6443 209.282 13.7702 209.599 13.9022L209.752 13.976L209.982 12.574Z" fill="#025EA3"/>
<path d="M214.357 12.4233H213.039C212.631 12.4233 212.324 12.5355 212.144 12.9588L209.611 18.8827H211.403C211.403 18.8827 211.696 18.084 211.763 17.9102C211.958 17.9102 213.7 17.9144 213.947 17.9144C213.999 18.14 214.155 18.8827 214.155 18.8827H215.74L214.357 12.4233ZM212.253 16.5876C212.396 16.2162 212.933 14.7794 212.933 14.7794C212.922 14.7971 213.072 14.4046 213.161 14.1645L213.274 14.7212C213.274 14.7212 213.602 16.2641 213.67 16.5876C213.403 16.5876 212.586 16.5876 212.253 16.5876Z" fill="#025EA3"/>
<path d="M197.436 12.418H194.685L194.668 12.5288C196.809 13.0643 198.219 14.3773 198.808 15.9339L198.211 12.9644C198.106 12.5541 197.808 12.433 197.436 12.418Z" fill="#F1A535"/>
<path d="M189.523 10.856H188.435L187.18 5.31981L188.384 5.12354L189.242 9.45602L191.429 5.18098H192.583L189.523 10.856Z" fill="#025EA3"/>
<path d="M195.181 9.04651H192.587C192.514 9.81589 192.882 10.1517 193.5 10.1517C194.019 10.1517 194.477 9.96293 194.969 9.65996L194.965 10.4293C194.484 10.7248 193.926 10.9129 193.273 10.9129C192.144 10.9129 191.396 10.283 191.622 8.85775C191.824 7.57202 192.733 6.79443 193.788 6.79443C195 6.79443 195.404 7.6876 195.229 8.80919C195.215 8.89058 195.19 8.98837 195.181 9.04651ZM193.654 7.47423C193.252 7.47423 192.878 7.7854 192.7 8.43168H194.308C194.336 7.81823 194.139 7.47423 193.654 7.47423Z" fill="#025EA3"/>
<path d="M196.872 8.5628L196.515 10.8313H195.51L196.133 6.87631H196.986L196.988 7.67031C197.328 7.2121 197.789 6.82707 198.423 6.79492L198.429 7.76948C197.794 7.80983 197.224 8.13741 196.872 8.5628Z" fill="#025EA3"/>
<path d="M198.416 10.8307L199.037 6.8757H200.043L199.42 10.8307H198.416ZM199.654 6.213C199.319 6.213 199.086 5.9839 199.139 5.65631C199.19 5.3212 199.496 5.08252 199.831 5.08252C200.158 5.08252 200.388 5.3212 200.335 5.65631C200.282 5.9839 199.978 6.213 199.654 6.213Z" fill="#025EA3"/>
<path d="M202.822 5.79538C202.48 5.79538 202.273 5.94241 202.218 6.2953L202.125 6.87662H202.895V7.67883H202.001L201.504 10.8316H200.507L201.004 7.67883H200.418L200.544 6.87662H201.131L201.238 6.19682C201.374 5.32075 201.997 4.99316 202.824 4.99316C203.001 4.99316 203.131 5.00958 203.23 5.02599L203.237 5.8282C203.139 5.81247 202.991 5.79538 202.822 5.79538Z" fill="#025EA3"/>
<path d="M202.833 10.8307L203.456 6.8757H204.461L203.839 10.8307H202.833ZM204.07 6.213C203.736 6.213 203.502 5.9839 203.557 5.65631C203.609 5.3212 203.915 5.08252 204.249 5.08252C204.576 5.08252 204.806 5.3212 204.755 5.65631C204.703 5.9839 204.398 6.213 204.07 6.213Z" fill="#025EA3"/>
<path d="M208.354 9.04651H205.762C205.689 9.81589 206.055 10.1517 206.674 10.1517C207.194 10.1517 207.651 9.96293 208.143 9.65996L208.139 10.4293C207.657 10.7248 207.1 10.9129 206.446 10.9129C205.317 10.9129 204.57 10.283 204.796 8.85775C204.998 7.57202 205.907 6.79443 206.962 6.79443C208.174 6.79443 208.578 7.6876 208.403 8.80919C208.388 8.89058 208.365 8.98837 208.354 9.04651ZM206.827 7.47423C206.426 7.47423 206.05 7.7854 205.874 8.43168H207.482C207.509 7.81823 207.314 7.47423 206.827 7.47423Z" fill="#025EA3"/>
<path d="M211.329 10.8307L211.333 10.2823C210.996 10.6181 210.556 10.9128 209.994 10.9128C209.149 10.9128 208.567 10.2994 208.778 8.96371C209.01 7.48991 209.942 6.83474 210.879 6.83474C211.264 6.83474 211.563 6.89971 211.794 6.98177L212.094 5.0737L213.124 4.91846L212.194 10.8314L211.329 10.8307ZM211.665 7.79288C211.433 7.67867 211.25 7.62053 210.906 7.62053C210.379 7.62053 209.929 8.0384 209.792 8.90626C209.669 9.67564 209.948 10.0361 210.389 10.0361C210.759 10.0361 211.076 9.82268 211.395 9.49646L211.665 7.79288Z" fill="#025EA3"/>
<path d="M215.269 10.8698C214.794 10.8698 214.405 10.7952 214.044 10.6708L214.705 6.47163L215.483 6.354L215.199 8.17112C215.426 7.97279 215.741 7.77446 216.129 7.77446C216.775 7.77446 217.209 8.24498 217.051 9.25168C216.877 10.3534 216.183 10.8698 215.269 10.8698ZM215.83 8.431C215.577 8.431 215.321 8.59787 215.097 8.8215L214.881 10.1797C215.031 10.2358 215.135 10.2604 215.351 10.2604C215.832 10.2604 216.169 9.97456 216.276 9.29271C216.368 8.71618 216.171 8.431 215.83 8.431Z" fill="#025EA3"/>
<path d="M218.843 10.9921C218.455 11.7307 218.07 11.9592 217.481 11.9592C217.347 11.9592 217.273 11.9475 217.204 11.9291L217.202 11.3149C217.299 11.3396 217.402 11.358 217.548 11.358C217.769 11.358 217.965 11.2589 218.091 11.0427L218.193 10.8437L217.548 7.89135L218.356 7.7915L218.73 9.92526L219.743 7.83527H220.498L218.843 10.9921Z" fill="#025EA3"/>
<path d="M270 20.7515C270 22.1009 268.882 23.1944 267.505 23.1944H233.105C231.726 23.1944 230.608 22.0995 230.608 20.7515V2.58722C230.608 1.23789 231.727 0.14502 233.105 0.14502H267.505C268.884 0.14502 270 1.23789 270 2.58722V20.7515Z" fill="white"/>
<path d="M266.02 10.2064C266.02 9.84603 266.311 9.55127 266.66 9.55127C267.02 9.55127 267.301 9.84535 267.301 10.2064C267.301 10.5675 267.02 10.8616 266.66 10.8616C266.311 10.8712 266.02 10.5757 266.02 10.2064ZM266.662 10.7187C266.934 10.7187 267.146 10.4909 267.146 10.216C267.146 9.94109 266.922 9.71267 266.662 9.71267C266.39 9.71267 266.176 9.94041 266.176 10.216C266.174 10.4916 266.39 10.7187 266.662 10.7187ZM266.573 10.5012H266.439V9.92126H266.681C266.73 9.92126 266.789 9.92126 266.827 9.94998C266.873 9.97871 266.894 10.0355 266.894 10.0922C266.894 10.1593 266.856 10.2153 266.799 10.2345L266.904 10.4909H266.759L266.671 10.2632H266.573V10.5012ZM266.573 10.1784H266.65C266.681 10.1784 266.709 10.1784 266.727 10.1681C266.746 10.1593 266.757 10.1305 266.757 10.1018C266.757 10.0827 266.746 10.0546 266.727 10.045C266.709 10.0355 266.669 10.0355 266.65 10.0355H266.582L266.573 10.1784Z" fill="#FD0C15"/>
<path d="M256.853 5.83098L256.678 6.9512C256.3 6.7515 256.021 6.67627 255.719 6.67627C254.923 6.67627 254.361 7.47302 254.361 8.60281C254.361 9.38109 254.74 9.85503 255.362 9.85503C255.624 9.85503 255.913 9.77023 256.274 9.58968L256.088 10.7667C255.691 10.8809 255.438 10.9185 255.139 10.9185C253.985 10.9185 253.266 10.0643 253.266 8.69719C253.266 6.85614 254.254 5.56494 255.681 5.56494C255.864 5.56494 256.031 5.58409 256.165 5.62171L256.613 5.73523C256.727 5.78379 256.757 5.79268 256.853 5.83098Z" fill="#FD0C15"/>
<path d="M253.294 6.59991C253.265 6.59033 253.224 6.59033 253.187 6.59033C252.838 6.59033 252.635 6.77088 252.304 7.27423L252.402 6.63821H251.431L250.773 10.8243H251.849C252.237 8.26178 252.333 7.82477 252.848 7.82477C252.878 7.82477 252.887 7.82477 252.926 7.82477C253.023 7.32142 253.148 6.95143 253.333 6.60948L253.294 6.59991Z" fill="#FD0C15"/>
<path d="M246.882 10.7665C246.589 10.8622 246.357 10.9094 246.114 10.9094C245.571 10.9094 245.271 10.5866 245.271 9.98819C245.271 9.87466 245.282 9.74199 245.301 9.60931L245.369 9.20102L245.417 8.86865L245.882 6.0127H246.948L246.822 6.62957H247.375L247.221 7.64447H246.678L246.395 9.39115C246.385 9.46774 246.378 9.52382 246.378 9.56212C246.378 9.78097 246.492 9.87535 246.745 9.87535C246.872 9.87535 246.959 9.86509 247.035 9.83773L246.882 10.7665Z" fill="#FD0C15"/>
<path d="M242.653 7.95776C242.653 8.48914 242.904 8.84956 243.466 9.12517C243.894 9.33376 243.973 9.40009 243.973 9.59022C243.973 9.84668 243.778 9.97047 243.362 9.97047C243.041 9.97047 242.75 9.92259 242.401 9.79949L242.256 10.7672L242.303 10.7768L242.497 10.8144C242.566 10.8247 242.653 10.8431 242.778 10.8527C243.03 10.8712 243.234 10.891 243.368 10.891C244.494 10.891 245.018 10.4451 245.018 9.49516C245.018 8.92547 244.805 8.58352 244.262 8.32774C243.815 8.11847 243.766 8.07128 243.766 7.87159C243.766 7.64385 243.941 7.53032 244.292 7.53032C244.505 7.53032 244.786 7.55904 245.058 7.59666L245.212 6.62894C244.933 6.58107 244.516 6.54346 244.272 6.54346C243.06 6.54346 242.643 7.1788 242.653 7.95776Z" fill="#FD0C15"/>
<path d="M265.4 10.8138H264.383L264.43 10.4062C264.139 10.729 263.83 10.8713 263.441 10.8713C262.656 10.8713 262.141 10.1792 262.141 9.13416C262.141 7.73901 262.936 6.56202 263.887 6.56202C264.305 6.56202 264.615 6.74325 264.917 7.13171L265.149 5.66064H266.207L265.4 10.8138ZM263.819 9.83652C264.324 9.83652 264.672 9.25726 264.672 8.42222C264.672 7.89083 264.469 7.59607 264.1 7.59607C263.616 7.59607 263.268 8.18491 263.268 9.00011C263.267 9.55133 263.45 9.83652 263.819 9.83652Z" fill="#FD0C15"/>
<path d="M250.276 10.7282C249.909 10.8418 249.56 10.8992 249.172 10.8992C247.979 10.8992 247.348 10.2529 247.348 9.01917C247.348 7.57683 248.143 6.52295 249.22 6.52295C250.105 6.52295 250.665 7.12136 250.665 8.05078C250.665 8.35511 250.626 8.65876 250.529 9.0862H248.395C248.385 9.15253 248.385 9.18057 248.385 9.21887C248.385 9.71265 248.706 9.95953 249.326 9.95953C249.706 9.95953 250.054 9.87405 250.443 9.69418L250.276 10.7282ZM249.676 8.23201C249.687 8.14652 249.687 8.07129 249.687 8.02342C249.687 7.68147 249.501 7.48246 249.182 7.48246C248.842 7.48246 248.599 7.74781 248.503 8.23201H249.676Z" fill="#FD0C15"/>
<path d="M238.347 10.814H237.279L237.89 6.85629L236.512 10.814H235.785L235.698 6.88501L235.048 10.814H234.049L234.883 5.67041H236.426L236.464 8.85942L237.512 5.67041H239.181L238.347 10.814Z" fill="#FD0C15"/>
<path d="M241.11 8.95449C240.993 8.94423 240.945 8.93534 240.869 8.93534C240.257 8.93534 239.954 9.15282 239.954 9.57068C239.954 9.82714 240.112 9.99812 240.344 9.99812C240.771 9.99812 241.091 9.57068 241.11 8.95449ZM241.886 10.814H240.993L241.012 10.3777C240.741 10.7285 240.383 10.8803 239.889 10.8803C239.307 10.8803 238.909 10.4146 238.909 9.74097C238.909 8.71581 239.608 8.12766 240.791 8.12766C240.917 8.12766 241.071 8.13655 241.228 8.15638C241.257 8.01413 241.266 7.95737 241.266 7.88214C241.266 7.60653 241.082 7.50189 240.579 7.50189C240.277 7.50189 239.928 7.54977 239.687 7.62568L239.551 7.67355L239.454 7.70159L239.6 6.76192C240.134 6.59983 240.493 6.53418 240.88 6.53418C241.802 6.53418 242.287 6.96162 242.287 7.75836C242.287 7.96694 242.268 8.11877 242.199 8.59339L241.986 10.0829L241.945 10.3483L241.918 10.5569L241.897 10.7087L241.886 10.814Z" fill="#FD0C15"/>
<path d="M258.705 8.9541C258.599 8.94385 258.542 8.93496 258.464 8.93496C257.853 8.93496 257.542 9.15244 257.542 9.5703C257.542 9.82676 257.698 9.99773 257.932 9.99773C258.367 9.99773 258.687 9.5703 258.705 8.9541ZM259.483 10.8136H258.59L258.609 10.3773C258.337 10.7281 257.98 10.88 257.486 10.88C256.901 10.88 256.504 10.4142 256.504 9.74059C256.504 8.71542 257.203 8.12727 258.387 8.12727C258.504 8.12727 258.669 8.13616 258.825 8.156C258.854 8.01375 258.862 7.95698 258.862 7.88175C258.862 7.60614 258.677 7.50151 258.174 7.50151C257.872 7.50151 257.524 7.54938 257.283 7.62529L257.127 7.66359L257.03 7.69231L257.175 6.75264C257.709 6.59124 258.067 6.5249 258.455 6.5249C259.376 6.5249 259.863 6.95234 259.863 7.74908C259.863 7.95767 259.843 8.10949 259.774 8.58412L259.552 10.0648L259.522 10.3301L259.493 10.5394L259.473 10.6816L259.483 10.8136Z" fill="#FD0C15"/>
<path d="M262.481 6.59991C262.452 6.59033 262.412 6.59033 262.373 6.59033C262.025 6.59033 261.822 6.77088 261.491 7.27423L261.588 6.63821H260.619L259.959 10.8243H261.037C261.422 8.26178 261.521 7.82477 262.035 7.82477C262.065 7.82477 262.065 7.82477 262.112 7.82477C262.208 7.32142 262.344 6.95143 262.519 6.60948L262.481 6.59991Z" fill="#FD0C15"/>
<path d="M257.98 14.8856C257.98 15.8355 257.678 16.395 257.203 16.395C256.854 16.4045 256.65 16.025 256.65 15.4662C256.65 14.8022 256.96 14.0437 257.448 14.0437C257.845 14.041 257.98 14.4479 257.98 14.8856ZM259.036 14.8959C259.036 13.842 258.504 13.0151 257.504 13.0151C256.35 13.0151 255.604 14.0109 255.604 15.4833C255.604 16.5358 256.051 17.401 257.135 17.401C258.233 17.401 259.036 16.6405 259.036 14.8959Z" fill="#F3AE12"/>
<path d="M255.943 12.2851L255.779 13.4053C255.417 13.207 255.167 13.1304 254.887 13.1304C254.14 13.1304 253.616 13.9292 253.616 15.0569C253.616 15.8359 253.965 16.3091 254.547 16.3091C254.799 16.3091 255.07 16.2243 255.402 16.0431L255.227 17.2208C254.859 17.3343 254.615 17.374 254.333 17.374C253.257 17.374 252.577 16.5184 252.577 15.1527C252.577 13.3109 253.51 12.019 254.838 12.019C255.011 12.019 255.157 12.0375 255.286 12.0765L255.691 12.1907C255.825 12.2297 255.854 12.2379 255.943 12.2851Z" fill="#F3AE12"/>
<path d="M249.316 13.0462C249.287 13.0332 249.248 13.0332 249.211 13.0332C248.879 13.0332 248.695 13.2158 248.384 13.7178L248.481 13.0804H247.58L246.968 17.2665H247.969C248.328 14.7046 248.425 14.2663 248.899 14.2663C248.929 14.2663 248.929 14.2663 248.976 14.2758C249.065 13.7739 249.191 13.4046 249.356 13.0633L249.316 13.0462Z" fill="#F3AE12"/>
<path d="M262.392 17.2297H261.442L261.491 16.8221C261.219 17.1442 260.928 17.2865 260.56 17.2865C259.832 17.2865 259.347 16.5944 259.347 15.5487C259.347 14.1549 260.095 12.9766 260.978 12.9766C261.366 12.9766 261.666 13.1571 261.938 13.5565L262.16 12.0854H263.15L262.392 17.2297ZM260.91 16.2435C261.385 16.2435 261.704 15.6629 261.704 14.8286C261.704 14.2979 261.521 14.012 261.17 14.012C260.716 14.012 260.395 14.5933 260.395 15.4188C260.394 15.9686 260.568 16.2435 260.91 16.2435Z" fill="#F3AE12"/>
<path d="M239.926 17.2112C239.588 17.3261 239.257 17.3822 238.898 17.3822C237.783 17.3822 237.2 16.7373 237.2 15.5029C237.2 14.0687 237.946 13.0073 238.946 13.0073C239.771 13.0073 240.295 13.5955 240.295 14.5358C240.295 14.8402 240.255 15.1425 240.169 15.5706H238.18C238.17 15.6369 238.17 15.6649 238.17 15.7019C238.17 16.1868 238.47 16.4323 239.052 16.4323C239.411 16.4323 239.732 16.3475 240.091 16.1669L239.926 17.2112ZM239.364 14.7157C239.364 14.6295 239.376 14.5536 239.376 14.5057C239.376 14.1638 239.199 13.9648 238.899 13.9648C238.579 13.9648 238.356 14.2315 238.259 14.7157H239.364Z" fill="#F3AE12"/>
<path d="M251.839 17.2112C251.5 17.3261 251.17 17.3822 250.809 17.3822C249.685 17.3822 249.103 16.7373 249.103 15.5029C249.103 14.0687 249.85 13.0073 250.849 13.0073C251.674 13.0073 252.207 13.5955 252.207 14.5358C252.207 14.8402 252.169 15.1425 252.08 15.5706H250.091C250.081 15.6369 250.081 15.6649 250.081 15.7019C250.081 16.1868 250.383 16.4323 250.964 16.4323C251.324 16.4323 251.644 16.3475 252.002 16.1669L251.839 17.2112ZM251.277 14.7157C251.287 14.6295 251.287 14.5536 251.287 14.5057C251.287 14.1638 251.112 13.9648 250.811 13.9648C250.49 13.9648 250.268 14.2315 250.171 14.7157H251.277Z" fill="#F3AE12"/>
<path d="M265.807 17.2112C265.459 17.3261 265.129 17.3822 264.778 17.3822C263.662 17.3822 263.072 16.7373 263.072 15.5029C263.072 14.0687 263.818 13.0073 264.828 13.0073C265.652 13.0073 266.177 13.5955 266.177 14.5358C266.177 14.8402 266.137 15.1425 266.049 15.5706H264.062C264.052 15.6369 264.052 15.6649 264.052 15.7019C264.052 16.1868 264.352 16.4323 264.935 16.4323C265.294 16.4323 265.612 16.3475 265.972 16.1669L265.807 17.2112ZM265.245 14.7157C265.245 14.6295 265.255 14.5536 265.255 14.5057C265.255 14.1638 265.08 13.9648 264.779 13.9648C264.457 13.9648 264.236 14.2315 264.139 14.7157H265.245Z" fill="#F3AE12"/>
<path d="M236.957 13.2343C236.765 13.1023 236.493 12.9976 236.125 12.9976C235.718 12.9976 235.399 13.0831 235.399 13.4996C235.399 14.2396 236.873 13.9647 236.873 15.5595C236.873 17.0114 235.9 17.3924 235.019 17.3924C234.631 17.3924 234.177 17.2679 233.845 17.1174L234.088 16.0533C234.293 16.2338 234.69 16.3556 235.03 16.3556C235.35 16.3556 235.835 16.2701 235.835 15.7305C235.835 14.8852 234.36 15.1991 234.36 13.7191C234.36 12.3623 235.222 11.9629 236.058 11.9629C236.524 11.9629 236.971 12.0299 237.223 12.2009L236.957 13.2343Z" fill="#F3AE12"/>
<path d="M242.856 17.211C242.653 17.3061 242.372 17.3731 241.965 17.3731C241.091 17.3731 240.548 16.5176 240.548 15.4746C240.548 14.1068 241.333 13.0249 242.488 13.0249C242.74 13.0249 243.128 13.1289 243.429 13.3012L243.207 14.297C242.992 14.154 242.77 14.0685 242.538 14.0685C242.004 14.0685 241.615 14.552 241.615 15.4069C241.615 15.9021 241.897 16.3083 242.334 16.3083C242.595 16.3083 242.781 16.2508 243.002 16.1271L242.856 17.211Z" fill="#F3AE12"/>
<path d="M246.601 16.1577C246.553 16.5168 246.505 16.8696 246.475 17.2383H245.514L245.592 16.5667H245.58C245.28 17.0215 244.969 17.334 244.416 17.334C243.816 17.334 243.486 16.7082 243.486 15.9012C243.486 15.6167 243.504 15.4642 243.563 15.0286L243.834 13.0918H244.912L244.621 15.0389C244.592 15.2474 244.552 15.4533 244.552 15.6735C244.552 15.9204 244.668 16.1687 244.959 16.1481C245.396 16.1481 245.657 15.625 245.736 15.0088L246.038 13.0918H247.075L246.601 16.1577Z" fill="#F3AE12"/>
<path d="M266.807 17.1918H266.64V16.499H266.41V16.3472H267.039V16.499H266.807V17.1918Z" fill="#F3AE12"/>
<path d="M267.882 17.1918H267.728V16.4894L267.582 17.1918H267.427L267.282 16.4894V17.1918H267.126V16.3472H267.369L267.504 17.0119H267.514L267.649 16.3472H267.882V17.1918Z" fill="#F3AE12"/>
</svg>
