<svg width="70" height="70" viewBox="0 0 70 70" fill="none" xmlns="http://www.w3.org/2000/svg">
<path d="M49.4922 23.2334V16.2608C49.4883 16.0062 49.3837 15.7635 49.2014 15.5858C49.019 15.4081 48.7737 15.3098 48.519 15.3125H46.6211V11.5679L49.6948 13.4201C50.8491 14.1872 52.048 14.5697 53.174 14.5696C53.7475 14.5777 54.3168 14.4714 54.8487 14.2569C55.3806 14.0425 55.8645 13.7241 56.2719 13.3205C57.1724 12.4284 57.6817 11.2151 57.688 9.94755C57.6942 8.67997 57.1967 7.4618 56.305 6.56087C54.6747 4.913 52.1711 4.84683 49.7387 6.3871L46.6211 8.21394V3.5465C46.6125 3.28985 46.5037 3.04678 46.318 2.86941C46.1323 2.69204 45.8845 2.59449 45.6277 2.59767H37.2114C36.956 2.59491 36.7097 2.69297 36.5261 2.8706C36.3424 3.04822 36.2362 3.29108 36.2305 3.5465V9.02345H34.3201C34.0663 9.02345 33.8229 9.12428 33.6434 9.30376C33.4639 9.48324 33.3631 9.72666 33.3631 9.98048C33.3631 10.2343 33.4639 10.4777 33.6434 10.6572C33.8229 10.8367 34.0663 10.9375 34.3201 10.9375H36.2305V15.3125H34.3201C34.1947 15.3114 34.0703 15.3351 33.9541 15.3822C33.8379 15.4293 33.7321 15.4988 33.6429 15.5869C33.5536 15.675 33.4826 15.7798 33.434 15.8954C33.3853 16.0109 33.36 16.135 33.3594 16.2604V23.2467C31.1123 24.0258 28.9946 25.1371 27.0767 26.5437L28.2058 28.0905C30.0862 26.7185 32.2011 25.7031 34.4918 24.8828H48.3856C52.7276 26.3867 56.4657 29.0322 59.2007 32.7327C61.1024 35.3088 62.4207 38.2679 63.064 41.4046C63.7072 44.5413 63.6601 47.7804 62.9259 50.8971C62.1916 54.0137 60.7878 56.9332 58.812 59.4529C56.8362 61.9726 54.3356 64.032 51.4839 65.4883H31.3986C30.7277 65.0781 29.8126 64.5313 28.7325 63.7373L27.5995 65.2823C28.8925 66.2319 29.9487 66.9104 30.7386 67.3049C30.8716 67.3701 31.018 67.4036 31.1661 67.4026H51.7121C51.8602 67.4041 52.0066 67.3709 52.1396 67.3058C56.1317 65.317 59.4899 62.2542 61.837 58.4617C64.1841 54.6691 65.427 50.2972 65.4259 45.8372C65.429 40.8854 63.899 36.0541 61.046 32.0068C58.193 27.9596 54.1569 24.8948 49.4922 23.2334ZM50.6993 8.03169C50.7101 8.0254 50.7206 8.01898 50.7313 8.01228C51.3527 7.61675 53.493 6.4407 54.9432 7.90701C55.4777 8.44735 55.7756 9.17789 55.7715 9.93791C55.7674 10.6979 55.4616 11.4252 54.9213 11.9598C54.1442 12.7287 52.6326 13.0945 50.7203 11.8155C50.7067 11.8066 50.6938 11.7982 50.6801 11.79L47.5098 9.89052L50.6993 8.03169ZM38.1445 4.51173H44.707V15.3125H38.1445V4.51173ZM47.5781 17.2266V22.9688H35.2734V17.2266H47.5781Z" fill="#801960"/>
<path d="M49.1805 60.4297H33.9858C33.3083 60.0405 32.6553 59.6099 32.0307 59.1404L30.8984 60.6851C31.6639 61.2693 32.475 61.7913 33.3238 62.246C33.4568 62.3113 33.6032 62.3448 33.7513 62.3438H49.4102C49.5583 62.3452 49.7046 62.3121 49.8377 62.247C53.1274 60.6069 55.8544 58.0244 57.6709 54.8287C59.4875 51.633 60.3115 47.9688 60.0378 44.3031C59.7641 40.6374 58.4051 37.1361 56.1341 34.2456C53.8631 31.3551 50.7829 29.2063 47.2861 28.0729C47.1905 28.0422 47.0906 28.0269 46.9902 28.0274H36.1695C36.0694 28.0272 35.97 28.0427 35.8747 28.0733C33.9507 28.6899 32.137 29.6088 30.5017 30.7954L31.6299 32.3422C33.0554 31.2957 34.6399 30.4852 36.3226 29.9414H46.8375C53.6249 32.2656 58.1745 38.5125 58.1745 45.6842C58.178 48.8134 57.2931 51.8793 55.6225 54.5252C54.037 57.0301 51.8136 59.0679 49.1805 60.4297Z" fill="#801960"/>
<path d="M42.6085 40.244C41.3849 39.1091 39.8247 38.404 38.1644 38.2356C38.3376 37.887 38.4655 37.5178 38.5451 37.1368C38.6914 36.4524 38.668 35.7427 38.477 35.0694C38.286 34.3962 37.9332 33.7799 37.4493 33.2743C37.4024 33.2244 37.3543 33.1754 37.3062 33.128C37.258 33.0807 37.2076 33.0323 37.1574 32.9871C36.6592 32.5228 36.0544 32.1882 35.3964 32.0127C34.7384 31.8372 34.0473 31.8261 33.384 31.9806C32.9994 32.0695 32.6283 32.2087 32.2801 32.3947C32.0736 30.7599 31.3465 29.235 30.2064 28.0454C29.4971 27.3014 28.6436 26.71 27.6979 26.3073C26.7523 25.9045 25.7344 25.699 24.7066 25.7031H24.641C23.602 25.7072 22.575 25.9254 21.6242 26.3441C20.6733 26.7628 19.819 27.3731 19.1145 28.1367C17.9957 29.3435 17.2943 30.8778 17.1136 32.5135C16.7656 32.3363 16.396 32.2053 16.0141 32.1237C15.3485 31.9802 14.6579 32.0025 14.003 32.1888C13.348 32.3751 12.749 32.7197 12.2586 33.192C12.209 33.2388 12.16 33.2868 12.1122 33.3353C12.0643 33.3839 12.0172 33.4339 11.972 33.4834C11.4962 33.997 11.1533 34.6193 10.9733 35.296C10.7933 35.9726 10.7816 36.683 10.9393 37.3652C11.025 37.7445 11.1589 38.1113 11.3377 38.4567C9.67631 38.6509 8.12376 39.3822 6.91592 40.5393C6.16775 41.2591 5.57423 42.124 5.17163 43.081C4.76903 44.038 4.5658 45.067 4.57436 46.1052C4.58292 47.1434 4.80309 48.1689 5.22142 49.1191C5.63975 50.0694 6.24745 50.9243 7.00738 51.6317C8.2317 52.7675 9.79302 53.4731 11.4546 53.6415C11.2828 53.9885 11.1558 54.3561 11.0768 54.7352C10.9306 55.4198 10.9541 56.1299 11.1452 56.8033C11.3364 57.4768 11.6895 58.0932 12.1737 58.5989C12.2201 58.648 12.2676 58.6964 12.3156 58.7438C12.3636 58.7913 12.4142 58.8395 12.4644 58.8846C13.2326 59.5983 14.2415 59.9964 15.2901 59.9996C15.6089 59.9993 15.9267 59.963 16.2374 59.8913C16.6197 59.8031 16.9888 59.6652 17.3353 59.4811C17.5416 61.1163 18.2688 62.6417 19.4093 63.8315C20.1187 64.5752 20.9723 65.1663 21.918 65.5687C22.8637 65.9711 23.8816 66.1764 24.9093 66.1719H24.975C26.014 66.1679 27.0411 65.9497 27.992 65.531C28.943 65.1123 29.7974 64.502 30.502 63.7383C31.6225 62.5297 32.3244 60.9925 32.5038 59.3541C32.8531 59.5325 33.2242 59.6643 33.6078 59.7461C33.8972 59.8078 34.1923 59.8391 34.4883 59.8393C35.5604 59.8363 36.5902 59.4201 37.3633 58.6772C37.4128 58.6306 37.4618 58.5826 37.5091 58.5346C37.5564 58.4866 37.6048 58.4362 37.6499 58.386C38.1255 57.8725 38.4683 57.2503 38.6483 56.5739C38.8283 55.8975 38.8401 55.1873 38.6827 54.5053C38.5972 54.1272 38.4639 53.7616 38.2862 53.4173C39.9447 53.222 41.4944 52.4912 42.7 51.3356C43.4482 50.6157 44.0417 49.7509 44.4443 48.7939C44.8469 47.8369 45.0501 46.8079 45.0416 45.7697C45.033 44.7315 44.8128 43.7059 44.3945 42.7557C43.9762 41.8055 43.3685 40.9506 42.6085 40.2432V40.244ZM31.8183 35.6699C31.8318 35.6434 31.8441 35.6161 31.8552 35.5879C31.8664 35.5605 31.879 35.5332 31.8909 35.5059C31.9045 35.4752 31.9182 35.4443 31.9319 35.4136C32.1064 35.027 32.3663 34.6852 32.6921 34.4136C33.0178 34.1421 33.401 33.948 33.8126 33.846C34.1742 33.7602 34.5515 33.766 34.9103 33.8629C35.2691 33.9597 35.598 34.1446 35.8673 34.4006C35.8997 34.43 35.9317 34.4604 35.9644 34.4925C35.9971 34.5246 36.0259 34.5542 36.0566 34.5867C36.3298 34.8678 36.529 35.2122 36.6364 35.5892C36.7438 35.9662 36.7559 36.364 36.6718 36.7469C36.5823 37.1563 36.4019 37.5404 36.1438 37.8706C35.8857 38.2008 35.5566 38.4687 35.1809 38.6544C35.159 38.6645 35.1373 38.6753 35.1154 38.6857C35.0805 38.7022 35.0458 38.7192 35.0101 38.7345C34.9856 38.745 34.9616 38.7565 34.9382 38.7689L33.9224 39.3088L28.5309 42.1526L31.4645 36.3612L31.8183 35.6699ZM20.5166 29.4399C21.0444 28.868 21.6844 28.4109 22.3967 28.0974C23.1091 27.7839 23.8784 27.6206 24.6567 27.6177H24.706C25.476 27.6145 26.2386 27.7683 26.947 28.0699C27.6555 28.3715 28.295 28.8144 28.8265 29.3716C29.3649 29.9316 29.7839 30.5952 30.058 31.3222C30.3322 32.0491 30.4557 32.8241 30.4212 33.6003C30.4027 33.9725 30.3158 34.3381 30.1649 34.6788C30.1611 34.6872 30.1574 34.6957 30.1537 34.704C30.1331 34.7497 30.1118 34.7952 30.0889 34.8407L29.7618 35.4869L29.3516 36.2863C29.3379 36.3136 29.3252 36.3418 29.314 36.3698L26.7233 41.4843C26.3707 41.3328 26.0012 41.2239 25.6227 41.1599L25.6091 38.1362C25.6077 37.8836 25.5061 37.6419 25.3267 37.4641C25.1473 37.2864 24.9046 37.1871 24.652 37.188H24.6474C24.5219 37.1879 24.3976 37.2127 24.2817 37.2608C24.1658 37.3089 24.0605 37.3794 23.972 37.4684C23.8835 37.5573 23.8134 37.6629 23.7658 37.7791C23.7183 37.8952 23.6942 38.0196 23.6949 38.1451L23.7095 41.2189C23.4038 41.2895 23.1058 41.39 22.8197 41.5189L20.182 36.5172C20.165 36.4639 20.1433 36.4122 20.1172 36.3627L19.3499 34.9241C19.302 34.8126 19.249 34.7041 19.1938 34.5975C19.0806 34.3089 19.0125 34.0045 18.992 33.6952C18.9445 32.9196 19.0552 32.1425 19.3173 31.411C19.5793 30.6796 19.9874 30.009 20.5166 29.4401V29.4399ZM24.8322 48.8086H24.8072C24.1986 48.8202 23.602 48.6388 23.1029 48.2904C23.0725 48.2706 23.041 48.2527 23.0084 48.2368C22.9183 48.1701 22.8322 48.0981 22.7505 48.0212C22.6702 47.9427 22.5944 47.8596 22.5236 47.7723C22.5019 47.7401 22.4781 47.7093 22.4525 47.6801C22.0799 47.1809 21.8772 46.5754 21.874 45.9525C21.8708 45.3296 22.0674 44.7221 22.4349 44.2191L22.4375 44.2158C22.6093 43.9799 22.8152 43.7707 23.0483 43.5951C23.0491 43.5951 23.0502 43.6252 23.0511 43.6245C23.5522 43.2543 24.1607 43.0583 24.7837 43.0664H24.8087C25.4168 43.0547 26.0131 43.2358 26.512 43.5838C26.5429 43.604 26.5752 43.6223 26.6085 43.6384C26.6982 43.705 26.784 43.7768 26.8654 43.8534C26.9457 43.9317 27.0214 44.0147 27.092 44.1019C27.1141 44.1346 27.1381 44.1658 27.1641 44.1954C27.5389 44.6908 27.746 45.2927 27.7551 45.9139C27.7605 46.5648 27.4805 47.1659 27.207 47.6561V47.6245C26.931 47.9934 26.5724 48.2926 26.1601 48.4982C25.7477 48.7038 25.293 48.8101 24.8322 48.8086ZM13.3864 34.7733C13.4158 34.7409 13.446 34.7092 13.4776 34.6776C13.5092 34.646 13.5397 34.6155 13.5718 34.5853C13.8369 34.3249 14.1628 34.1347 14.5199 34.032C14.877 33.9292 15.2541 33.9171 15.6171 33.9968C16.0064 34.0858 16.372 34.2574 16.6891 34.5C17.0063 34.7427 17.2676 35.0506 17.4553 35.403C17.5144 35.5446 17.579 35.6846 17.6516 35.8222L21.0238 42.2156L16.1335 39.7385C16.1148 39.7273 16.096 39.7157 16.0762 39.7056L14.5734 38.9375C14.5496 38.9253 14.5255 38.9143 14.5008 38.9041C14.0817 38.7377 13.7088 38.4726 13.4139 38.1314C13.119 37.7902 12.9107 37.383 12.8066 36.9441C12.7161 36.5626 12.7217 36.1645 12.8229 35.7857C12.9241 35.4068 13.1177 35.059 13.3864 34.7733ZM8.31045 50.2288C7.7413 49.6988 7.28618 49.0583 6.97289 48.3464C6.6596 47.6346 6.49472 46.8663 6.48832 46.0886C6.48193 45.3109 6.63414 44.54 6.93568 43.8231C7.23721 43.1062 7.68173 42.4583 8.24209 41.9189C8.80205 41.3804 9.46567 40.9613 10.1926 40.6872C10.9196 40.4131 11.6947 40.2896 12.4708 40.3244C12.903 40.3461 13.3256 40.4593 13.7108 40.6565L20.3554 44.0223C20.205 44.3706 20.0965 44.7354 20.0319 45.1091L16.9974 45.1365C16.873 45.137 16.7499 45.1621 16.6352 45.2103C16.5205 45.2584 16.4164 45.3287 16.3288 45.417C16.2412 45.5054 16.1719 45.6102 16.1248 45.7254C16.0778 45.8405 16.0538 45.9638 16.0544 46.0882C16.055 46.2127 16.0801 46.3357 16.1282 46.4505C16.1763 46.5652 16.2466 46.6693 16.335 46.7569C16.4234 46.8444 16.5281 46.9137 16.6433 46.9608C16.7584 47.0079 16.8818 47.0318 17.0062 47.0313H17.0151L20.0826 47.0131C20.1533 47.3254 20.2548 47.6299 20.3856 47.9221L15.3344 50.5881C15.315 50.5969 15.2953 50.6064 15.2761 50.6166L14.4234 51.0705L13.7993 51.4C13.7773 51.4116 13.7549 51.422 13.7327 51.4331C13.6917 51.4521 13.6507 51.4712 13.6103 51.4913C13.2803 51.6402 12.9263 51.7288 12.565 51.753C11.7896 51.8005 11.0126 51.6898 10.2812 51.4278C9.54982 51.1658 8.87933 50.7579 8.31045 50.2288ZM17.8036 56.2004C17.7918 56.2238 17.7812 56.2476 17.7711 56.2718C17.7347 56.3476 17.7003 56.424 17.668 56.5009C17.4909 56.877 17.2322 57.2088 16.9107 57.4723C16.5893 57.7358 16.2131 57.9244 15.8096 58.0243C15.448 58.11 15.0707 58.1041 14.7119 58.0073C14.3531 57.9104 14.0241 57.7256 13.7547 57.4696C13.7225 57.4402 13.6905 57.4098 13.659 57.3783C13.6276 57.3467 13.5963 57.3155 13.5663 57.2837C13.2931 57.0026 13.0939 56.6581 12.9865 56.2811C12.8791 55.9041 12.8669 55.5064 12.9511 55.1235C13.0397 54.7176 13.2179 54.3366 13.4725 54.0083C13.7272 53.68 14.0519 53.4128 14.423 53.226C14.4685 53.2052 14.5135 53.1829 14.5586 53.1608C14.5768 53.1526 14.5945 53.1435 14.6133 53.1357C14.6378 53.1251 14.6618 53.1136 14.6852 53.1013L15.3394 52.7536L21.0865 49.7223L17.8455 56.1207L17.8036 56.2004ZM29.0994 62.4348C28.5716 63.0069 27.9316 63.4641 27.2193 63.7778C26.5069 64.0914 25.7376 64.2548 24.9592 64.2578H24.9099C24.1399 64.261 23.3774 64.1071 22.669 63.8056C21.9605 63.504 21.321 63.0611 20.7896 62.504C20.2511 61.944 19.8321 61.2803 19.5579 60.5534C19.2838 59.8265 19.1602 59.0514 19.1948 58.2753C19.2112 57.9441 19.282 57.6178 19.4044 57.3096C19.4459 57.223 19.4852 57.135 19.5223 57.0454C19.524 57.0421 19.5253 57.0387 19.5271 57.0352L19.5491 56.9916L20.2698 55.5852C20.2875 55.5501 20.303 55.514 20.3164 55.4771L22.8918 50.3926C23.1869 50.5197 23.4941 50.6168 23.8086 50.6825L23.8235 53.7406C23.825 53.9931 23.9266 54.2347 24.106 54.4123C24.2854 54.5899 24.5281 54.689 24.7805 54.6879H24.7855C24.911 54.6881 25.0353 54.6634 25.1512 54.6153C25.2671 54.5672 25.3723 54.4966 25.4609 54.4077C25.5494 54.3187 25.6194 54.2131 25.6669 54.097C25.7145 53.9808 25.7385 53.8564 25.7377 53.7309L25.7229 50.6949C26.093 50.6246 26.4534 50.5109 26.7969 50.3563L29.457 55.4004C29.4709 55.4373 29.487 55.4734 29.5054 55.5084L30.2574 56.9166L30.2727 56.9457L30.2764 56.9531C30.3152 57.043 30.3562 57.1314 30.3994 57.2182C30.5267 57.5243 30.6028 57.8493 30.6247 58.1801C30.6721 58.9557 30.5613 59.7328 30.299 60.4642C30.0368 61.1956 29.6287 61.8661 29.0994 62.4349V62.4348ZM36.2361 57.0964C36.2065 57.1286 36.1763 57.1606 36.1442 57.1931C36.1121 57.2257 36.082 57.2552 36.05 57.2854C35.7848 57.5458 35.4589 57.7359 35.1018 57.8387C34.7447 57.9415 34.3675 57.9536 34.0045 57.874C33.5995 57.7808 33.2203 57.5985 32.8946 57.3403C32.5688 57.0822 32.3047 56.7547 32.1214 56.3817C32.0877 56.3051 32.0519 56.229 32.0141 56.1535C32.0037 56.1297 31.9929 56.1061 31.9807 56.0833L31.9354 55.9985L28.5921 49.6597L34.4479 52.6258L35.0484 52.9323C35.072 52.9445 35.0962 52.9556 35.1207 52.9655C35.1369 52.9722 35.1524 52.9799 35.1684 52.9867C35.2167 53.0096 35.265 53.0325 35.3138 53.0537C35.6875 53.2344 36.0162 53.4963 36.2759 53.8201C36.5357 54.144 36.7198 54.5217 36.8151 54.9258C36.9057 55.3073 36.9003 55.7053 36.7992 56.0841C36.6982 56.463 36.5047 56.8108 36.2362 57.0965L36.2361 57.0964ZM41.3738 49.9559C40.8139 50.4946 40.1503 50.9137 39.4234 51.1879C38.6964 51.462 37.9213 51.5854 37.1451 51.5505C36.7848 51.5324 36.4305 51.4502 36.0991 51.3077C36.0544 51.2864 36.009 51.2667 35.9636 51.2462C35.944 51.2367 35.9245 51.2281 35.9052 51.2188L35.299 50.9117L34.4157 50.4606C34.3964 50.4507 34.3768 50.4428 34.3573 50.4343L29.2601 47.8525C29.385 47.5635 29.4811 47.2629 29.5472 46.9551L32.6211 46.9219C32.8785 46.9205 33.1249 46.817 33.306 46.634C33.4871 46.451 33.5881 46.2036 33.5867 45.9461C33.5854 45.6887 33.4818 45.4423 33.2988 45.2612C33.1159 45.0801 32.8684 44.9791 32.611 44.9805H32.6004L29.5719 45.027C29.502 44.6526 29.3872 44.288 29.2301 43.9411L34.3182 41.2614C34.3272 41.2571 34.3365 41.2556 34.3455 41.2508L34.8343 40.9918L35.8165 40.4742C36.1983 40.2705 36.619 40.1501 37.0508 40.1211C37.8263 40.0736 38.6033 40.1843 39.3347 40.4465C40.0661 40.7086 40.7366 41.1167 41.3053 41.646C41.8745 42.1761 42.3296 42.8166 42.6429 43.5285C42.9562 44.2404 43.1211 45.0086 43.1275 45.7863C43.1339 46.5641 42.9816 47.335 42.6801 48.0519C42.3786 48.7688 41.934 49.4167 41.3737 49.9561L41.3738 49.9559Z" fill="#F9D7E0"/>
</svg>
