<svg width="9" height="9" viewBox="0 0 9 9" fill="none" xmlns="http://www.w3.org/2000/svg">
<g clip-path="url(#clip0)">
<path d="M8.625 4.125H4.875V0.375C4.875 0.275544 4.83549 0.180161 4.76516 0.109835C4.69484 0.0395088 4.59946 0 4.5 0V0C4.40054 0 4.30516 0.0395088 4.23484 0.109835C4.16451 0.180161 4.125 0.275544 4.125 0.375V4.125H0.375C0.275544 4.125 0.180161 4.16451 0.109835 4.23484C0.0395088 4.30516 0 4.40054 0 4.5H0C0 4.59946 0.0395088 4.69484 0.109835 4.76516C0.180161 4.83549 0.275544 4.875 0.375 4.875H4.125V8.625C4.125 8.72446 4.16451 8.81984 4.23484 8.89017C4.30516 8.96049 4.40054 9 4.5 9C4.59946 9 4.69484 8.96049 4.76516 8.89017C4.83549 8.81984 4.875 8.72446 4.875 8.625V4.875H8.625C8.72446 4.875 8.81984 4.83549 8.89017 4.76516C8.96049 4.69484 9 4.59946 9 4.5C9 4.40054 8.96049 4.30516 8.89017 4.23484C8.81984 4.16451 8.72446 4.125 8.625 4.125Z" fill="#801960"/>
</g>
<defs>
<clipPath id="clip0">
<rect width="9" height="9" fill="white"/>
</clipPath>
</defs>
</svg>
