<svg width="38" height="38" viewBox="0 0 38 38" fill="none" xmlns="http://www.w3.org/2000/svg">
<g clip-path="url(#clip0)">
<path d="M26.125 31.6667H2.0995C0.942083 31.6667 0 30.7246 0 29.5672V10.2917C0 9.85467 0.354667 9.5 0.791667 9.5H30.875C31.312 9.5 31.6667 9.85467 31.6667 10.2917V16.625C31.6667 17.062 31.312 17.4167 30.875 17.4167C30.438 17.4167 30.0833 17.062 30.0833 16.625V11.0833H1.58333V29.5672C1.58333 29.8522 1.8145 30.0833 2.0995 30.0833H26.125C26.562 30.0833 26.9167 30.438 26.9167 30.875C26.9167 31.312 26.562 31.6667 26.125 31.6667Z" fill="#801960"/>
<path d="M30.875 11.0833C30.5963 11.0833 30.3256 10.9361 30.1815 10.6733L25.3998 1.99342C25.2621 1.74008 24.9961 1.58333 24.7063 1.58333H6.96032C6.67057 1.58333 6.40457 1.74008 6.26682 1.99342L1.48516 10.6733C1.27457 11.058 0.790073 11.1926 0.410073 10.9852C0.0269066 10.7746 -0.112427 10.2917 0.0981566 9.91008L4.87982 1.23025C5.29624 0.47025 6.09424 0 6.96032 0H24.7079C25.574 0 26.372 0.47025 26.7884 1.22867L31.5685 9.9085C31.7807 10.2917 31.6413 10.773 31.2582 10.9836C31.1362 11.0517 31.0048 11.0833 30.875 11.0833Z" fill="#F9D7E0"/>
<path d="M15.8333 11.0833C15.3963 11.0833 15.0417 10.7287 15.0417 10.2917V0.791667C15.0417 0.354667 15.3963 0 15.8333 0C16.2703 0 16.625 0.354667 16.625 0.791667V10.2917C16.625 10.7287 16.2703 11.0833 15.8333 11.0833Z" fill="#F9D7E0"/>
<path d="M37.2083 38C36.7713 38 36.4167 37.6453 36.4167 37.2083V34.0417C36.4167 29.2394 32.509 25.3333 27.7083 25.3333H24.5417C24.1047 25.3333 23.75 24.9787 23.75 24.5417C23.75 24.1047 24.1047 23.75 24.5417 23.75H27.7083C33.383 23.75 38 28.367 38 34.0417V37.2083C38 37.6453 37.6453 38 37.2083 38Z" fill="#801960"/>
<path d="M30.0833 30.0832C29.9012 30.0832 29.7176 30.0199 29.5687 29.8916L24.0271 25.1416C23.8498 24.9928 23.75 24.7727 23.75 24.5415C23.75 24.3104 23.8498 24.0903 24.0271 23.9415L29.5687 19.1915C29.8997 18.908 30.3968 18.9445 30.685 19.277C30.97 19.6079 30.9304 20.1082 30.5979 20.3932L25.7592 24.5415L30.5995 28.6915C30.932 28.9765 30.97 29.4752 30.6866 29.8077C30.5267 29.9898 30.3066 30.0832 30.0833 30.0832Z" fill="#801960"/>
</g>
<defs>
<clipPath id="clip0">
<rect width="38" height="38" fill="white"/>
</clipPath>
</defs>
</svg>
