<svg width="38" height="38" viewBox="0 0 38 38" fill="none" xmlns="http://www.w3.org/2000/svg">
<path fill-rule="evenodd" clip-rule="evenodd" d="M0.791687 11.0832C0.791687 10.6459 1.14613 10.2915 1.58335 10.2915H33.25C33.6872 10.2915 34.0417 10.6459 34.0417 11.0832C34.0417 11.5204 33.6872 11.8748 33.25 11.8748H1.58335C1.14613 11.8748 0.791687 11.5204 0.791687 11.0832Z" fill="#F9D7E0"/>
<path fill-rule="evenodd" clip-rule="evenodd" d="M0.791687 9.27364C0.791687 7.22836 2.41926 5.5415 4.46214 5.5415H30.3712C32.4142 5.5415 34.0417 7.22836 34.0417 9.27364V17.4165C34.0417 17.8537 33.6872 18.2082 33.25 18.2082C32.8129 18.2082 32.4583 17.8537 32.4583 17.4165V9.27364C32.4583 8.07099 31.5082 7.12484 30.3712 7.12484H4.46214C3.32519 7.12484 2.37502 8.07099 2.37502 9.27364V23.9761C2.37502 25.1786 3.32519 26.1248 4.46214 26.1248H15.8334C16.2705 26.1248 16.625 26.4793 16.625 26.9165C16.625 27.3537 16.2705 27.7082 15.8334 27.7082H4.46214C2.41926 27.7082 0.791687 26.0213 0.791687 23.9761V9.27364Z" fill="#801960"/>
<path fill-rule="evenodd" clip-rule="evenodd" d="M3.95837 18.9997C3.95837 18.5625 4.31282 18.208 4.75004 18.208H7.91671C8.35393 18.208 8.70837 18.5625 8.70837 18.9997C8.70837 19.4368 8.35393 19.7913 7.91671 19.7913H4.75004C4.31282 19.7913 3.95837 19.4368 3.95837 18.9997Z" fill="#F9D7E0"/>
<path fill-rule="evenodd" clip-rule="evenodd" d="M3.95837 22.9582C3.95837 22.521 4.31282 22.1665 4.75004 22.1665H11.0834C11.5206 22.1665 11.875 22.521 11.875 22.9582C11.875 23.3953 11.5206 23.7498 11.0834 23.7498H4.75004C4.31282 23.7498 3.95837 23.3953 3.95837 22.9582Z" fill="#F9D7E0"/>
<path fill-rule="evenodd" clip-rule="evenodd" d="M28.5 21.3748C24.565 21.3748 21.375 24.5648 21.375 28.4998C21.375 32.4349 24.565 35.6248 28.5 35.6248C32.4351 35.6248 35.625 32.4349 35.625 28.4998C35.625 24.5648 32.4351 21.3748 28.5 21.3748ZM19.7917 28.4998C19.7917 23.6903 23.6905 19.7915 28.5 19.7915C33.3095 19.7915 37.2083 23.6903 37.2083 28.4998C37.2083 33.3094 33.3095 37.2082 28.5 37.2082C23.6905 37.2082 19.7917 33.3094 19.7917 28.4998Z" fill="#801960"/>
<path fill-rule="evenodd" clip-rule="evenodd" d="M31.1068 27.1483C31.416 26.8392 31.9173 26.8392 32.2265 27.1483C32.5356 27.4575 32.5356 27.9588 32.2265 28.268L29.0598 31.4347C28.7506 31.7438 28.2493 31.7438 27.9401 31.4347L25.5651 29.0597C25.256 28.7505 25.256 28.2492 25.5651 27.94C25.8743 27.6309 26.3756 27.6309 26.6848 27.94L28.5 29.7553L31.1068 27.1483Z" fill="#F9D7E0"/>
</svg>
