<svg width="15" height="15" viewBox="0 0 15 15" fill="none" xmlns="http://www.w3.org/2000/svg">
<g opacity="0.2" clip-path="url(#clip0)">
<path d="M3.62041 7.08838L10.5584 0.169625C10.7857 -0.0569268 11.1537 -0.0565459 11.3806 0.170797C11.6074 0.398111 11.6068 0.766342 11.3795 0.993069L4.85448 7.50003L11.3797 14.007C11.607 14.2337 11.6076 14.6017 11.3809 14.8291C11.2671 14.943 11.1181 15 10.969 15C10.8204 15 10.6719 14.9434 10.5584 14.8302L3.62041 7.91165C3.51093 7.80272 3.44949 7.65448 3.44949 7.50003C3.44949 7.34557 3.5111 7.19751 3.62041 7.08838Z" fill="#801960"/>
</g>
<defs>
<clipPath id="clip0">
<rect width="15" height="15" fill="white" transform="matrix(-1 0 0 1 15 0)"/>
</clipPath>
</defs>
</svg>
