<svg width="38" height="38" viewBox="0 0 38 38" fill="none" xmlns="http://www.w3.org/2000/svg">
<g clip-path="url(#clip0)">
<path d="M37.3667 34.2H35.4667V22.1667C35.4667 21.8171 35.1824 21.5333 34.8327 21.5339C34.6262 21.5339 34.4331 21.6347 34.3147 21.8037L25.448 34.4704C25.2478 34.7573 25.3175 35.1519 25.6044 35.3526C25.7102 35.4267 25.8369 35.4666 25.9667 35.4666H34.2V37.3666C34.2 37.7162 34.4837 37.9999 34.8333 37.9999C35.1829 37.9999 35.4666 37.7162 35.4666 37.3666V35.4666H37.3666C37.7162 35.4666 37.9999 35.1829 37.9999 34.8333C38 34.4837 37.7163 34.2 37.3667 34.2ZM34.2 24.1755V34.2H27.1827L34.2 24.1755Z" fill="#F9D7E0"/>
<path d="M25.9667 36.7333H18.4687L25.4397 28.5246C25.4555 28.5056 25.4702 28.486 25.484 28.4657C26.7957 26.5245 26.3587 23.8969 24.4897 22.4845C22.2173 20.8518 19.0513 21.3705 17.4185 23.6428C16.7998 24.5041 16.4666 25.5391 16.4666 26.5999C16.4666 26.9494 16.7504 27.2332 17.0999 27.2332C17.4495 27.2332 17.7332 26.9494 17.7332 26.5999C17.7332 24.501 19.4344 22.7999 21.5326 22.7992C22.328 22.7992 23.1033 23.0487 23.7498 23.513C25.0589 24.5162 25.3642 26.3636 24.4465 27.7341L16.6174 36.9569C16.3914 37.2236 16.4236 37.6232 16.6902 37.8493C16.8049 37.9468 16.9499 38 17.1 38H25.9667C26.3163 38 26.6 37.7163 26.6 37.3667C26.6 37.0171 26.3163 36.7333 25.9667 36.7333Z" fill="#F9D7E0"/>
<path d="M17.114 33.5787C17.1272 33.2291 16.8543 32.9352 16.5047 32.922C8.24222 32.6154 1.61055 25.9952 1.28881 17.7333H3.8C4.14957 17.7333 4.43331 17.4496 4.43331 17.1C4.43331 16.7504 4.14957 16.4667 3.8 16.4667H1.28881C1.6055 8.21943 8.21935 1.60617 16.4666 1.28948V3.16669C16.4666 3.51626 16.7504 3.8 17.0999 3.8C17.4495 3.8 17.7332 3.51626 17.7332 3.16669V1.28948C25.8678 1.60424 32.4335 8.04591 32.9028 16.1728L30.4328 13.7028C30.1814 13.4596 29.7805 13.4665 29.5373 13.7186C29.3004 13.9643 29.3004 14.3532 29.5373 14.5983L33.0725 18.1336C33.139 18.214 33.2252 18.2767 33.3221 18.3153C33.3468 18.3229 33.3721 18.3286 33.3974 18.3337C33.4411 18.3495 33.4861 18.3602 33.5317 18.366C33.538 18.366 33.5437 18.366 33.55 18.366C33.5563 18.366 33.562 18.366 33.5677 18.366C33.6159 18.3622 33.6634 18.3527 33.7096 18.3381C33.7355 18.3349 33.7615 18.3299 33.7868 18.3236C33.8723 18.2931 33.9508 18.2444 34.0155 18.1804L37.5989 14.5982C37.8421 14.3468 37.8352 13.9459 37.5831 13.7027C37.3374 13.4659 36.9485 13.4659 36.7034 13.7027L34.1719 16.2322C33.72 7.15417 26.2345 0.0221914 17.145 0.00883203C17.1292 0.00823828 17.1158 0 17.1 0C17.0842 0 17.0708 0.00823828 17.055 0.00883203C7.64624 0.0215234 0.0215234 7.64624 0.00883203 17.055C0.00883203 17.0708 0 17.0842 0 17.1C0 17.1158 0.00823828 17.1292 0.00883203 17.145C0.0246406 26.322 7.28709 33.8466 16.4578 34.188H16.4812C16.8213 34.188 17.1013 33.9188 17.114 33.5787Z" fill="#801960"/>
<path d="M25.6088 8.59126C25.3618 8.34426 24.9603 8.34426 24.7133 8.59126L17.9075 15.3964C17.3932 15.1672 16.8062 15.1672 16.2918 15.3964L13.0694 12.174C12.818 11.9308 12.4171 11.9378 12.1739 12.1898C11.9371 12.4356 11.9371 12.8244 12.1739 13.0695L15.3899 16.2856C14.9384 17.2311 15.3386 18.3629 16.2842 18.8145C17.01 19.161 17.8751 19.0128 18.4432 18.444C19.0145 17.8772 19.162 17.0095 18.8093 16.2863L25.6087 9.48678C25.8558 9.23978 25.8558 8.83826 25.6088 8.59126ZM17.5478 17.5478C17.2976 17.7873 16.9024 17.7873 16.6522 17.5478C16.4046 17.3008 16.4046 16.8993 16.6522 16.6523C16.8999 16.4053 17.3008 16.4046 17.5478 16.6523C17.7954 16.8993 17.7954 17.3002 17.5478 17.5478Z" fill="#801960"/>
</g>
<defs>
<clipPath id="clip0">
<rect width="38" height="38" fill="white"/>
</clipPath>
</defs>
</svg>
