<svg width="23" height="23" viewBox="0 0 23 23" fill="none" xmlns="http://www.w3.org/2000/svg">
<g opacity="0.2" clip-path="url(#clip0)">
<path d="M5.55116 12.1312L16.1893 22.7399C16.5379 23.0873 17.1022 23.0867 17.4502 22.7381C17.7979 22.3896 17.797 21.8249 17.4484 21.4773L7.4434 11.5L17.4487 1.52267C17.7973 1.17498 17.7982 0.61072 17.4505 0.262127C17.2761 0.0873813 17.0476 7.57142e-06 16.8191 7.55144e-06C16.5911 7.53152e-06 16.3635 0.0867976 16.1894 0.26033L5.55116 10.8688C5.38329 11.0358 5.28909 11.2631 5.28909 11.5C5.28909 11.7368 5.38356 11.9638 5.55116 12.1312Z" fill="#801960"/>
</g>
<defs>
<clipPath id="clip0">
<rect width="23" height="23" fill="white" transform="translate(23 23) rotate(-180)"/>
</clipPath>
</defs>
</svg>
