<svg width="14" height="14" viewBox="0 0 14 14" fill="none" xmlns="http://www.w3.org/2000/svg">
<path d="M10.2812 0.847656C8.78981 0.847656 7.68313 1.76359 7 3.06291C6.31693 1.76367 5.21024 0.847656 3.71875 0.847656C1.56929 0.847656 0 2.65275 0 4.85393C0 7.76486 2.77736 9.59235 6.7299 13.0508C6.88458 13.1862 7.11542 13.1861 7.2701 13.0508C11.219 9.59552 14 7.76521 14 4.85393C14 2.6524 12.4305 0.847656 10.2812 0.847656ZM7 12.1981C3.35995 9.03618 0.820312 7.2797 0.820312 4.85393C0.820312 3.03764 2.06637 1.66797 3.71875 1.66797C5.31158 1.66797 6.29866 3.14308 6.60466 4.23817C6.71502 4.63766 7.28361 4.63944 7.39534 4.23817C7.69729 3.1576 8.67292 1.66797 10.2812 1.66797C11.9336 1.66797 13.1797 3.03764 13.1797 4.85393C13.1797 7.28109 10.6359 9.03979 7 12.1981Z" fill="#CCA3BF"/>
</svg>
